<?xml version="1.0" encoding="UTF-8" ?>
<!DOCTYPE svg PUBLIC "-//W3C//DTD SVG 1.1//EN" "http://www.w3.org/Graphics/SVG/1.1/DTD/svg11.dtd">
<svg width="919pt" height="845pt" viewBox="0 0 919 845" version="1.1" xmlns="http://www.w3.org/2000/svg">
<g id="#ffffffff">
<path fill="#ffffff" opacity="1.00" d=" M 534.55 270.58 C 537.55 266.31 542.44 262.72 547.76 262.36 C 547.47 264.46 547.18 266.56 547.02 268.67 C 546.21 278.43 545.47 288.20 544.85 297.97 C 543.48 314.51 543.03 331.10 542.07 347.66 C 541.52 348.74 540.96 349.81 540.40 350.88 C 538.99 346.33 537.53 341.80 535.77 337.38 C 534.08 333.26 533.49 328.65 530.79 325.00 C 530.84 320.27 530.08 315.09 533.02 310.99 C 535.36 307.84 536.20 303.85 535.16 300.05 C 532.97 296.40 529.30 293.48 528.77 289.00 C 527.19 282.22 531.28 276.13 534.55 270.58 Z" />
<path fill="#ffffff" opacity="1.00" d=" M 576.17 262.21 C 578.25 261.42 579.91 263.63 581.71 264.35 C 586.11 266.63 588.81 270.92 590.83 275.28 C 592.31 278.41 594.44 281.38 594.90 284.90 C 594.98 287.52 594.43 290.10 594.36 292.72 C 590.68 295.77 586.81 298.82 584.20 302.89 C 587.06 308.25 591.27 312.99 592.21 319.23 C 591.67 320.64 591.25 322.11 590.82 323.57 C 586.24 332.92 583.54 343.05 578.92 352.39 C 578.33 335.02 577.95 317.65 577.23 300.29 C 576.69 289.46 576.41 278.62 575.73 267.80 C 575.69 267.11 575.60 265.73 575.56 265.05 C 575.71 264.34 576.02 262.92 576.17 262.21 Z" />
<path fill="#ffffff" opacity="1.00" d=" M 787.01 270.94 C 787.87 271.64 788.77 272.30 789.69 272.94 C 786.32 287.72 775.79 301.56 760.98 306.11 C 752.72 297.48 750.47 283.93 755.01 272.92 C 756.15 273.06 757.30 273.26 758.45 273.46 C 759.18 277.84 759.49 282.86 762.76 286.23 C 764.81 288.39 768.21 288.07 770.62 286.71 C 777.43 283.07 782.13 276.72 787.01 270.94 Z" />
<path fill="#ffffff" opacity="1.00" d=" M 520.87 469.63 C 521.45 467.83 521.38 465.91 521.52 464.05 C 522.04 465.96 522.59 467.86 523.13 469.77 C 523.08 479.85 522.96 489.94 522.89 500.02 C 522.97 502.74 521.72 506.05 518.90 506.88 C 514.97 507.27 511.01 507.09 507.07 507.10 C 505.19 506.99 502.78 507.12 501.70 505.24 C 500.60 502.46 500.16 499.41 500.52 496.44 C 501.11 489.91 498.83 482.93 501.76 476.74 C 503.01 475.79 504.63 475.53 506.10 475.05 C 511.09 473.45 516.14 471.91 520.87 469.63 Z" />
<path fill="#ffffff" opacity="1.00" d=" M 594.12 469.90 C 598.44 470.17 602.28 472.36 606.40 473.49 C 609.35 474.51 612.61 474.91 615.23 476.71 C 617.23 478.97 616.81 482.20 616.93 484.98 C 616.83 490.66 617.06 496.35 616.85 502.03 C 616.87 503.86 615.71 505.36 614.91 506.91 C 609.06 506.97 603.12 507.54 597.32 506.62 C 593.71 504.77 595.44 500.13 594.80 496.93 C 593.52 487.97 594.08 478.91 594.12 469.90 Z" />
<path fill="#ffffff" opacity="1.00" d=" M 416.60 489.97 C 416.52 492.25 416.41 494.52 416.28 496.80 C 421.42 498.79 426.61 500.66 431.92 502.18 C 434.17 502.87 437.10 504.26 436.94 507.05 C 437.09 513.69 436.97 520.35 436.98 527.00 C 436.87 529.30 436.77 532.31 434.64 533.70 C 429.45 534.42 424.15 534.16 418.94 533.95 C 416.85 534.01 414.91 532.16 415.04 530.04 C 414.65 524.74 415.24 519.41 414.61 514.13 C 413.93 508.72 414.07 503.26 413.92 497.82 C 414.64 495.15 415.56 492.53 416.60 489.97 Z" />
<path fill="#ffffff" opacity="1.00" d=" M 320.08 500.91 C 325.24 499.68 330.00 497.13 335.22 496.15 C 335.63 496.10 336.46 495.99 336.88 495.94 C 337.41 505.27 336.84 514.62 336.96 523.97 C 337.04 527.08 336.72 530.92 333.72 532.68 C 328.89 533.48 323.93 533.10 319.05 532.96 C 316.38 533.09 314.24 530.18 314.64 527.64 C 315.30 520.77 314.69 513.87 314.91 506.98 C 314.67 503.98 317.24 501.41 320.08 500.91 Z" />
<path fill="#ffffff" opacity="1.00" d=" M 173.35 716.81 C 176.24 731.61 179.64 746.31 183.30 760.95 C 170.92 760.62 158.61 762.84 146.23 762.05 C 155.29 746.98 164.25 731.85 173.35 716.81 Z" />
</g>
<g id="#d9e5ffff">
<path fill="#d9e5ff" opacity="1.00" d=" M 269.01 50.99 C 294.54 38.69 322.67 31.84 351.01 30.98 C 375.33 30.47 399.61 34.25 422.99 40.81 C 469.13 53.41 512.09 74.91 556.93 91.15 C 591.78 103.93 628.63 113.32 666.02 111.78 C 692.25 110.37 717.95 104.49 743.95 101.05 C 760.44 98.95 777.24 98.14 793.75 100.56 C 791.80 101.72 792.21 104.09 792.26 106.00 C 792.99 115.77 793.80 125.65 796.95 134.99 C 802.39 154.63 812.23 172.88 815.98 193.01 C 818.76 207.45 816.84 223.16 808.81 235.69 C 807.52 232.77 805.51 230.27 803.24 228.04 C 807.72 219.81 808.53 209.35 803.98 200.96 C 796.11 186.33 776.78 179.56 761.37 185.46 C 754.55 188.20 750.09 194.41 746.35 200.43 C 741.50 209.16 738.53 219.89 742.26 229.59 C 742.54 236.93 744.00 244.47 748.63 250.41 C 752.20 255.54 757.94 258.97 764.11 259.87 C 763.76 263.26 764.03 266.79 763.10 270.09 C 761.78 271.50 760.05 272.42 758.45 273.46 C 757.30 273.26 756.15 273.06 755.01 272.92 C 749.68 273.08 744.32 272.91 739.03 273.60 C 734.03 275.27 729.53 279.23 728.45 284.56 C 726.15 294.28 724.32 304.10 722.24 313.87 C 712.48 313.93 702.72 313.79 692.97 313.91 C 689.55 313.80 686.17 315.51 684.43 318.47 C 682.72 321.02 683.11 324.24 683.50 327.12 C 687.17 351.43 690.64 375.77 694.32 400.09 C 694.80 404.24 698.31 407.86 702.54 408.16 C 707.04 408.44 711.56 408.17 716.07 408.25 C 713.18 421.45 710.35 434.66 707.37 447.83 C 705.03 449.29 702.78 450.87 700.66 452.63 C 691.15 460.39 680.41 466.69 668.82 470.78 C 666.89 471.48 664.91 472.11 663.16 473.19 C 662.87 474.45 662.72 475.73 662.70 477.04 C 657.19 448.98 650.80 421.10 645.19 393.07 C 642.14 370.43 639.62 347.72 636.64 325.07 C 633.78 306.18 623.01 288.57 607.06 277.95 C 602.43 274.75 596.99 272.93 591.47 272.08 C 587.77 266.98 582.59 263.28 577.21 260.14 C 580.69 256.49 584.24 252.73 586.47 248.16 C 587.28 246.47 588.13 244.81 588.99 243.16 C 593.48 241.49 598.65 239.51 600.46 234.62 C 602.21 229.22 602.25 221.50 596.38 218.60 C 594.81 207.17 592.04 194.19 581.96 187.14 C 574.34 180.84 563.82 179.95 554.40 181.53 C 546.70 183.29 541.12 189.62 537.23 196.14 C 533.00 203.52 529.51 211.70 529.44 220.35 C 527.39 221.12 524.68 221.61 523.99 224.06 C 522.27 229.37 522.88 235.87 527.00 239.95 C 529.81 242.74 534.64 242.74 536.75 246.31 C 539.43 250.59 542.59 254.54 546.15 258.12 C 538.75 260.98 532.36 266.34 528.77 273.48 C 525.63 273.09 522.98 275.01 520.30 276.31 C 516.00 278.56 511.33 280.36 507.81 283.81 C 501.58 289.94 497.60 297.83 493.39 305.37 C 481.52 330.18 473.45 356.55 465.72 382.88 C 464.42 387.44 462.60 392.09 463.28 396.93 C 463.67 399.89 465.51 402.36 467.15 404.76 C 474.88 415.82 482.37 427.03 489.99 438.16 C 474.86 430.79 460.50 421.93 445.35 414.59 C 444.04 414.04 442.67 413.68 441.30 413.33 C 442.62 404.55 442.04 395.62 441.41 386.81 C 440.00 367.46 437.25 348.09 431.31 329.56 C 439.40 314.91 441.57 297.72 440.05 281.23 C 443.39 284.26 445.76 288.12 447.99 292.00 C 446.97 283.22 442.13 275.64 437.92 268.09 C 430.28 254.46 426.27 239.20 423.11 224.01 C 421.28 214.72 419.37 204.57 412.24 197.73 C 406.83 192.16 398.01 191.01 391.00 193.99 C 386.23 195.77 382.59 199.49 379.65 203.53 C 369.94 205.21 360.45 209.40 353.41 216.40 C 347.39 222.48 344.75 231.05 344.13 239.41 C 338.68 242.54 338.73 249.96 340.75 255.16 C 341.96 258.53 345.22 260.43 348.55 261.21 C 350.29 264.48 352.39 267.56 354.69 270.48 C 356.02 272.22 357.35 273.97 358.77 275.65 C 355.97 282.30 353.18 289.09 352.57 296.35 C 352.54 296.40 352.47 296.50 352.43 296.54 C 347.74 295.98 342.08 294.72 338.23 298.27 C 330.64 304.84 325.95 314.08 322.43 323.32 C 316.07 340.60 313.01 358.90 311.29 377.17 C 311.15 376.43 310.88 374.95 310.75 374.21 C 300.61 374.18 290.29 373.19 280.28 375.09 C 283.78 371.30 284.57 365.49 282.08 360.95 C 280.71 358.29 277.74 357.19 275.11 356.24 C 276.38 346.79 277.96 337.38 279.23 327.92 C 279.82 324.43 278.45 320.65 275.50 318.60 C 272.80 316.51 269.21 316.76 265.99 316.71 C 251.00 316.84 236.01 316.64 221.03 316.80 C 218.06 316.70 215.50 318.31 213.34 320.17 C 210.56 308.67 204.73 298.27 198.83 288.13 C 197.10 285.20 195.21 282.37 193.16 279.65 C 191.82 277.83 190.32 276.13 188.70 274.55 L 189.11 276.00 C 187.28 273.75 185.21 271.69 182.92 269.92 C 182.04 269.23 181.15 268.57 180.27 267.91 C 180.18 267.10 180.00 265.49 179.91 264.69 C 183.24 261.77 188.17 263.03 191.90 260.83 C 199.75 257.37 204.34 249.76 208.02 242.41 C 214.63 234.20 216.51 223.21 215.74 212.94 C 215.29 207.23 211.85 202.20 207.63 198.51 C 206.98 195.73 206.58 192.68 204.51 190.53 C 200.35 185.92 194.37 183.55 188.64 181.53 C 181.46 179.08 173.91 181.40 167.21 184.18 C 158.88 187.18 152.50 194.36 149.50 202.58 C 147.13 208.11 145.83 213.99 145.08 219.93 C 144.49 223.81 143.51 227.81 144.53 231.70 C 145.18 234.27 147.03 236.27 148.61 238.32 C 151.30 244.76 155.00 251.10 161.35 254.54 C 160.71 259.04 156.98 261.84 153.94 264.79 C 153.60 265.13 152.90 265.82 152.56 266.16 C 152.11 266.61 151.68 267.06 151.24 267.51 C 148.06 270.68 145.43 274.32 142.85 277.98 C 140.62 280.70 137.89 283.01 135.99 286.00 C 132.39 291.59 130.24 297.98 128.60 304.38 C 125.66 316.34 124.53 328.67 124.00 340.95 C 124.95 341.36 125.91 341.78 126.87 342.20 C 124.69 351.67 122.54 361.80 125.65 371.32 C 126.89 375.82 129.67 379.79 133.38 382.62 C 133.31 393.81 132.88 405.00 132.33 416.18 C 115.13 419.29 97.48 421.61 80.04 419.06 C 71.82 418.20 63.97 415.55 55.97 413.66 C 56.01 403.10 54.21 392.52 50.29 382.70 C 43.37 364.75 31.47 349.41 22.18 332.71 C 12.84 316.68 8.19 297.40 12.01 279.01 C 14.91 262.97 24.07 248.79 35.38 237.34 C 48.15 225.19 63.66 216.04 80.34 210.38 C 102.73 202.31 126.65 196.55 146.06 182.12 C 164.39 168.61 173.98 147.27 184.88 127.99 C 203.77 94.17 234.34 67.77 269.01 50.99 Z" />
<path fill="#d9e5ff" opacity="1.00" d=" M 494.30 388.05 C 498.59 379.96 502.47 371.56 507.61 363.95 C 506.90 378.34 505.58 392.70 504.61 407.08 C 501.60 404.21 500.25 400.20 498.31 396.64 C 496.92 393.81 495.19 391.10 494.30 388.05 Z" />
<path fill="#d9e5ff" opacity="1.00" d=" M 623.22 426.68 C 625.79 431.80 627.39 437.33 629.50 442.65 C 633.70 454.40 638.13 466.07 642.14 477.89 C 636.86 478.80 631.50 479.06 626.17 479.24 C 626.08 482.26 625.88 485.29 625.73 488.32 C 624.91 477.58 625.07 466.78 624.19 456.04 C 624.20 446.24 622.71 436.47 623.22 426.68 Z" />
</g>
<g id="#c2d0ffff">
<path fill="#c2d0ff" opacity="1.00" d=" M 792.26 106.00 C 792.21 104.09 791.80 101.72 793.75 100.56 C 808.57 103.32 823.21 108.55 835.32 117.73 C 849.91 128.29 861.15 143.02 868.80 159.25 C 877.54 177.83 881.93 198.49 881.11 219.02 C 880.30 252.23 869.69 284.69 872.12 318.07 C 873.29 337.07 880.77 354.81 887.51 372.37 C 892.33 385.71 897.05 399.58 896.41 413.97 C 896.37 429.07 889.12 443.19 879.35 454.33 C 867.97 467.93 853.81 478.78 841.66 491.63 C 838.34 494.60 836.06 498.64 832.30 501.12 C 832.55 494.02 833.27 486.96 833.47 479.87 C 833.23 457.75 824.70 436.72 814.59 417.39 C 811.64 411.33 806.82 406.14 805.38 399.41 C 804.16 394.05 804.84 388.36 806.88 383.29 C 806.95 383.07 807.09 382.64 807.17 382.42 C 814.52 382.76 822.59 380.18 826.57 373.58 C 832.13 364.22 830.65 352.74 828.46 342.59 C 827.72 338.40 826.91 334.23 825.85 330.11 C 828.13 329.91 830.42 329.71 832.72 329.51 C 830.09 316.43 827.42 303.35 824.67 290.29 C 823.96 286.09 822.40 281.79 818.81 279.22 C 815.11 275.99 810.01 275.79 805.38 275.29 C 800.14 274.54 794.88 273.92 789.69 272.94 C 788.77 272.30 787.87 271.64 787.01 270.94 C 785.19 267.50 784.88 263.55 785.13 259.73 C 789.99 262.57 796.26 263.31 801.17 260.17 C 809.35 255.29 811.49 244.31 808.81 235.69 C 816.84 223.16 818.76 207.45 815.98 193.01 C 812.23 172.88 802.39 154.63 796.95 134.99 C 793.80 125.65 792.99 115.77 792.26 106.00 Z" />
<path fill="#c2d0ff" opacity="1.00" d=" M 280.28 375.09 C 290.29 373.19 300.61 374.18 310.75 374.21 C 310.88 374.95 311.15 376.43 311.29 377.17 C 310.38 384.42 310.07 391.73 309.79 399.03 C 309.49 407.45 311.17 415.75 312.27 424.07 C 313.88 434.70 315.27 445.37 316.89 456.00 C 317.70 460.74 315.88 465.31 314.77 469.84 C 305.09 509.37 304.01 550.50 307.26 590.91 C 288.50 596.27 270.40 603.64 251.98 610.02 C 245.47 612.14 239.15 615.06 232.32 616.01 C 235.14 607.36 236.32 598.13 235.21 589.08 C 231.12 557.01 225.82 525.09 221.55 493.05 C 223.07 492.58 224.56 492.05 226.06 491.50 C 225.52 490.95 224.46 489.85 223.93 489.29 C 224.34 489.07 225.17 488.63 225.59 488.41 C 223.42 474.93 221.63 461.39 219.59 447.89 C 218.15 435.79 215.82 423.82 214.61 411.70 C 229.09 411.78 243.56 411.73 258.04 411.74 C 262.68 412.10 267.29 408.75 267.96 404.07 C 269.42 395.70 270.38 387.25 271.78 378.88 C 274.78 378.04 277.59 376.65 280.28 375.09 Z" />
<path fill="#c2d0ff" opacity="1.00" d=" M 734.76 408.26 C 738.43 408.25 742.12 408.22 745.80 408.28 C 740.02 417.39 735.46 427.20 731.37 437.16 C 726.13 450.79 721.58 465.13 721.97 479.90 C 725.41 517.97 728.90 556.04 732.45 594.10 C 733.32 601.05 733.50 608.11 732.43 615.06 C 729.13 637.37 728.43 660.05 730.18 682.53 C 690.16 690.57 648.85 681.12 612.02 665.07 C 613.31 633.92 614.61 602.77 615.65 571.61 C 620.16 571.35 624.68 571.09 629.20 570.82 C 629.96 559.53 628.12 548.29 628.16 537.00 C 626.94 520.79 627.11 504.51 625.73 488.32 C 625.88 485.29 626.08 482.26 626.17 479.24 C 631.50 479.06 636.86 478.80 642.14 477.89 C 642.71 479.27 643.36 480.63 644.00 482.00 C 645.48 481.76 646.97 481.52 648.46 481.27 C 646.86 487.95 643.64 494.36 644.08 501.38 C 648.28 499.90 649.77 495.49 651.69 491.91 C 655.40 498.95 654.73 508.28 661.22 513.75 C 663.52 515.76 668.13 517.28 670.17 514.23 C 671.95 509.76 672.26 504.80 672.09 500.03 C 671.77 492.02 667.10 485.20 663.08 478.57 C 662.99 478.19 662.79 477.42 662.70 477.04 C 662.72 475.73 662.87 474.45 663.16 473.19 C 664.91 472.11 666.89 471.48 668.82 470.78 C 680.41 466.69 691.15 460.39 700.66 452.63 C 702.78 450.87 705.03 449.29 707.37 447.83 C 705.84 454.87 704.35 461.91 702.84 468.94 C 702.11 472.63 700.02 475.80 697.74 478.71 C 694.40 483.01 691.43 487.77 690.24 493.15 C 689.00 498.69 689.62 504.41 690.29 509.99 C 693.45 510.42 696.96 510.70 699.62 508.57 C 705.90 503.98 706.87 495.64 710.42 489.21 C 713.63 491.61 713.25 497.38 717.81 498.29 C 718.69 491.39 715.67 484.78 716.05 477.97 C 722.39 454.77 729.10 431.64 734.76 408.26 Z" />
<path fill="#c2d0ff" opacity="1.00" d=" M 441.30 413.33 C 442.67 413.68 444.04 414.04 445.35 414.59 C 460.50 421.93 474.86 430.79 489.99 438.16 C 492.85 442.22 495.59 446.36 498.51 450.38 C 499.62 452.04 501.05 453.74 500.91 455.88 C 500.94 463.28 499.81 470.63 499.49 478.01 C 497.92 495.04 497.35 512.15 495.55 529.16 C 494.70 543.47 493.48 557.76 492.76 572.07 C 496.06 572.09 499.38 572.06 502.64 571.43 C 503.04 584.37 504.09 597.29 504.76 610.22 C 499.37 608.61 494.46 605.83 489.26 603.75 C 474.89 597.80 460.17 592.57 445.05 588.90 C 446.38 568.52 447.09 548.01 445.55 527.61 C 444.54 506.01 440.76 484.60 435.38 463.68 C 434.29 459.48 435.36 455.18 435.93 451.00 C 437.74 438.44 439.52 425.89 441.30 413.33 Z" />
<path fill="#c2d0ff" opacity="1.00" d=" M 55.97 413.66 C 63.97 415.55 71.82 418.20 80.04 419.06 C 97.48 421.61 115.13 419.29 132.33 416.18 C 131.04 440.21 128.51 464.17 125.02 487.98 C 125.45 488.12 126.31 488.39 126.74 488.52 C 126.11 489.55 125.49 490.59 124.87 491.63 C 127.91 492.36 130.93 493.16 133.97 493.88 L 132.27 493.53 C 136.77 507.25 140.88 521.11 143.82 535.26 C 150.57 565.43 157.18 595.64 163.98 625.81 C 127.00 621.88 92.43 601.54 70.16 571.91 C 54.88 551.89 44.95 527.40 44.20 502.08 C 43.18 472.06 55.57 443.57 55.97 413.66 Z" />
<path fill="#c2d0ff" opacity="1.00" d=" M 555.32 490.01 C 557.90 489.85 560.49 489.74 563.09 489.65 C 569.24 543.20 575.63 596.72 581.71 650.27 C 575.00 648.20 569.21 644.11 562.96 641.03 C 556.70 637.96 550.90 633.98 544.37 631.46 C 547.92 584.30 551.75 537.17 555.32 490.01 Z" />
<path fill="#c2d0ff" opacity="1.00" d=" M 774.50 518.40 C 775.99 518.26 777.47 518.12 778.98 517.99 C 782.09 545.00 785.37 571.98 788.53 598.99 C 790.04 614.00 793.15 628.77 795.46 643.67 C 790.74 648.56 786.40 653.86 781.00 658.05 C 774.96 662.80 768.78 667.67 761.53 670.43 C 765.78 619.75 770.30 569.09 774.50 518.40 Z" />
</g>
<g id="#c4546aff">
<path fill="#c4546a" opacity="1.00" d=" M 167.21 184.18 C 173.91 181.40 181.46 179.08 188.64 181.53 C 194.37 183.55 200.35 185.92 204.51 190.53 C 206.58 192.68 206.98 195.73 207.63 198.51 C 211.85 202.20 215.29 207.23 215.74 212.94 C 216.51 223.21 214.63 234.20 208.02 242.41 C 209.79 233.95 209.98 224.91 206.79 216.75 L 206.62 216.87 C 206.47 216.50 206.17 215.75 206.02 215.38 C 205.31 212.14 203.90 209.13 202.59 206.10 C 197.77 206.97 192.99 208.21 188.08 208.43 C 182.91 208.71 177.54 209.24 172.99 211.92 C 167.53 214.87 163.90 220.49 162.60 226.47 C 161.43 232.10 161.13 237.87 160.92 243.61 C 157.30 239.14 154.23 234.19 152.27 228.77 C 150.98 225.32 150.95 221.57 149.85 218.07 C 148.19 218.50 146.61 219.17 145.08 219.93 C 145.83 213.99 147.13 208.11 149.50 202.58 C 152.50 194.36 158.88 187.18 167.21 184.18 Z" />
<path fill="#c4546a" opacity="1.00" d=" M 391.00 193.99 C 398.01 191.01 406.83 192.16 412.24 197.73 C 419.37 204.57 421.28 214.72 423.11 224.01 C 426.27 239.20 430.28 254.46 437.92 268.09 C 442.13 275.64 446.97 283.22 447.99 292.00 C 445.76 288.12 443.39 284.26 440.05 281.23 C 441.57 297.72 439.40 314.91 431.31 329.56 C 427.49 318.74 422.79 307.67 414.22 299.72 C 410.16 295.44 403.76 297.60 398.58 297.17 C 394.98 293.93 390.63 291.72 386.21 289.86 C 386.50 287.23 386.87 284.62 387.23 282.01 C 391.12 279.09 395.08 275.93 397.71 271.79 C 398.64 265.97 398.85 259.99 398.39 254.11 C 397.43 247.12 394.93 240.24 395.93 233.09 C 390.39 236.76 383.62 237.89 377.08 237.17 C 371.54 236.84 364.62 235.73 360.53 240.43 C 354.33 249.15 355.43 260.38 354.69 270.48 C 352.39 267.56 350.29 264.48 348.55 261.21 C 345.44 254.39 343.79 246.92 344.13 239.41 C 344.75 231.05 347.39 222.48 353.41 216.40 C 360.45 209.40 369.94 205.21 379.65 203.53 C 382.59 199.49 386.23 195.77 391.00 193.99 M 403.88 264.37 C 408.68 263.45 413.14 260.13 414.32 255.21 C 415.40 250.82 415.38 244.75 410.81 242.32 C 409.89 250.07 407.23 257.38 403.88 264.37 Z" />
<path fill="#c4546a" opacity="1.00" d=" M 354.33 301.25 C 355.08 300.35 355.87 299.47 356.62 298.56 C 356.07 308.36 357.63 318.18 361.25 327.30 C 366.49 325.03 370.68 320.86 375.99 318.78 C 381.01 320.96 384.95 325.04 390.05 327.09 C 394.42 318.75 395.16 309.02 395.05 299.74 C 395.74 300.43 396.44 301.12 397.13 301.82 C 400.00 326.12 400.54 350.86 396.53 375.07 C 395.67 381.36 395.00 387.70 394.67 394.05 C 394.22 403.68 395.92 413.21 397.19 422.71 C 383.00 422.58 368.82 422.57 354.63 422.71 C 355.85 413.19 357.65 403.66 357.34 394.02 C 356.97 385.29 356.00 376.58 354.47 367.99 L 353.39 369.02 C 353.60 368.66 354.02 367.95 354.23 367.59 L 354.24 366.81 C 353.44 358.10 352.65 349.39 352.43 340.65 C 353.83 334.71 354.18 328.52 352.90 322.53 C 352.96 315.41 354.01 308.35 354.33 301.25 Z" />
<path fill="#c4546a" opacity="1.00" d=" M 537.54 445.47 C 552.17 446.05 566.77 447.27 581.37 448.33 C 582.11 479.25 582.84 510.16 583.57 541.07 C 583.98 551.80 588.92 562.93 598.29 568.70 C 603.42 572.05 609.75 572.14 615.65 571.61 C 614.61 602.77 613.31 633.92 612.02 665.07 C 610.68 695.38 609.19 725.68 607.61 755.98 C 607.57 757.37 607.54 758.78 607.52 760.19 C 603.05 760.43 598.62 761.18 594.17 761.65 C 594.68 758.64 594.04 755.63 593.69 752.65 C 589.70 718.53 585.82 684.39 581.71 650.27 C 575.63 596.72 569.24 543.20 563.09 489.65 C 560.49 489.74 557.90 489.85 555.32 490.01 C 551.75 537.17 547.92 584.30 544.37 631.46 C 541.16 672.62 537.97 713.79 534.79 754.95 C 534.57 757.85 534.21 760.74 533.99 763.65 C 529.38 763.39 524.78 762.91 520.16 762.86 C 522.97 761.02 520.40 757.55 520.19 755.02 C 516.51 736.56 514.70 717.79 512.54 699.11 C 509.37 669.53 506.93 639.89 504.76 610.22 C 504.09 597.29 503.04 584.37 502.64 571.43 C 513.45 569.02 522.19 560.92 527.33 551.35 C 531.57 543.62 533.63 534.82 533.92 526.03 C 535.06 499.18 536.33 472.33 537.54 445.47 Z" />
</g>
<g id="#3e4a62ff">
<path fill="#3e4a62" opacity="1.00" d=" M 554.40 181.53 C 563.82 179.95 574.34 180.84 581.96 187.14 C 592.04 194.19 594.81 207.17 596.38 218.60 C 595.70 227.17 592.76 235.48 588.99 243.16 C 588.13 244.81 587.28 246.47 586.47 248.16 C 588.34 239.93 588.53 231.02 585.22 223.12 C 585.03 224.20 584.67 226.35 584.48 227.43 C 578.41 222.08 575.60 214.32 573.37 206.78 C 569.20 210.22 565.42 214.34 560.36 216.51 C 557.45 218.01 553.79 218.49 551.82 221.37 C 550.86 221.42 549.90 221.49 548.95 221.57 C 546.52 221.34 545.56 225.27 543.12 224.34 C 544.35 220.84 547.83 219.44 551.28 219.45 C 552.08 216.56 552.96 213.70 553.87 210.84 C 549.90 214.59 546.00 218.40 541.68 221.73 C 538.72 228.29 539.82 235.80 538.66 242.77 C 533.39 236.47 530.57 228.39 529.44 220.35 C 529.51 211.70 533.00 203.52 537.23 196.14 C 541.12 189.62 546.70 183.29 554.40 181.53 Z" />
<path fill="#3e4a62" opacity="1.00" d=" M 761.37 185.46 C 776.78 179.56 796.11 186.33 803.98 200.96 C 808.53 209.35 807.72 219.81 803.24 228.04 C 805.51 230.27 807.52 232.77 808.81 235.69 C 811.49 244.31 809.35 255.29 801.17 260.17 C 796.26 263.31 789.99 262.57 785.13 259.73 C 785.32 256.07 785.57 252.41 785.95 248.77 C 787.33 246.77 788.79 244.83 790.28 242.91 C 793.82 242.03 797.81 241.25 800.21 238.21 C 802.54 235.53 803.02 231.89 803.35 228.49 C 799.44 232.69 795.20 237.83 789.02 238.14 C 786.17 238.16 784.97 235.20 784.26 232.93 C 782.03 225.21 779.86 217.48 777.72 209.74 C 774.88 211.10 772.12 212.60 769.38 214.13 C 769.98 214.47 770.60 214.80 771.22 215.13 C 774.90 214.11 779.49 217.03 778.82 221.10 C 777.16 219.76 775.88 217.93 773.98 216.92 C 772.57 216.71 771.15 216.68 769.75 216.61 C 768.85 213.98 767.77 211.43 766.65 208.89 C 764.20 210.10 761.88 212.03 759.06 212.11 C 756.24 211.46 755.29 208.37 753.85 206.24 C 751.33 207.67 747.63 208.30 746.61 211.39 C 744.57 217.29 743.37 223.45 742.26 229.59 C 738.53 219.89 741.50 209.16 746.35 200.43 C 750.09 194.41 754.55 188.20 761.37 185.46 Z" />
<path fill="#3e4a62" opacity="1.00" d=" M 170.92 219.11 C 171.61 216.20 174.00 213.73 177.04 213.38 C 178.98 213.28 182.15 213.15 182.17 215.86 C 180.27 215.69 178.33 215.07 176.43 215.51 C 174.37 216.37 173.32 218.90 170.92 219.11 Z" />
<path fill="#3e4a62" opacity="1.00" d=" M 196.57 215.32 C 198.40 211.77 203.22 213.68 205.18 216.13 C 205.39 215.94 205.81 215.57 206.02 215.38 C 206.17 215.75 206.47 216.50 206.62 216.87 C 206.19 217.19 205.33 217.83 204.91 218.14 C 202.80 215.55 199.78 214.75 196.57 215.32 Z" />
<path fill="#3e4a62" opacity="1.00" d=" M 747.00 216.97 C 747.91 213.02 754.32 210.81 756.40 214.85 C 754.94 214.65 753.49 214.50 752.04 214.39 C 750.22 214.97 748.82 216.39 747.00 216.97 Z" />
<path fill="#3e4a62" opacity="1.00" d=" M 566.95 221.79 C 568.45 216.28 578.81 218.75 578.25 224.33 C 576.48 223.20 574.96 221.65 572.99 220.86 C 570.93 220.61 568.96 221.48 566.95 221.79 Z" />
<path fill="#3e4a62" opacity="1.00" d=" M 190.89 221.31 C 193.54 223.10 194.31 226.39 195.89 229.00 C 196.96 231.33 198.82 233.71 198.24 236.42 C 197.57 239.22 192.04 239.60 192.05 236.42 C 193.51 236.66 194.97 236.90 196.44 237.15 C 197.43 231.20 191.47 227.04 190.89 221.31 Z" />
<path fill="#3e4a62" opacity="1.00" d=" M 556.53 232.80 C 557.17 230.68 556.61 227.70 558.98 226.57 C 559.00 231.78 556.78 236.74 556.86 241.92 C 557.09 246.26 562.78 240.00 562.24 243.88 C 560.33 245.37 556.72 246.12 555.61 243.33 C 554.41 239.88 556.18 236.27 556.53 232.80 Z" />
<path fill="#3e4a62" opacity="1.00" d=" M 753.67 234.05 C 754.03 231.93 755.08 228.56 757.85 229.11 C 756.96 230.73 756.03 232.34 755.15 233.97 C 756.37 234.79 758.06 235.33 758.24 237.06 C 756.45 236.66 753.79 236.46 753.67 234.05 Z" />
<path fill="#3e4a62" opacity="1.00" d=" M 760.95 242.31 C 765.65 241.86 767.23 237.05 770.47 234.50 C 769.97 242.60 760.32 245.86 753.45 243.93 C 754.54 240.77 758.54 243.46 760.95 242.31 Z" />
<path fill="#3e4a62" opacity="1.00" d=" M 179.68 239.23 C 179.39 238.03 178.33 236.06 179.98 235.38 C 181.79 236.94 181.48 240.33 184.06 241.19 C 185.57 242.02 188.14 241.75 188.21 244.03 C 184.75 244.17 180.91 242.76 179.68 239.23 Z" />
<path fill="#3e4a62" opacity="1.00" d=" M 360.72 244.12 C 360.14 239.26 368.72 237.54 370.45 241.96 C 368.66 241.71 366.90 241.18 365.09 241.23 C 363.47 241.93 362.16 243.14 360.72 244.12 Z" />
<path fill="#3e4a62" opacity="1.00" d=" M 384.64 241.61 C 387.80 237.88 394.59 241.66 394.04 246.31 C 392.38 245.22 391.40 243.38 389.79 242.29 C 388.09 241.89 386.35 241.83 384.64 241.61 Z" />
<path fill="#3e4a62" opacity="1.00" d=" M 570.33 240.96 C 573.72 245.58 568.04 251.69 562.96 250.81 C 563.84 248.38 567.11 248.54 568.44 246.50 C 569.21 244.70 569.67 242.79 570.33 240.96 Z" />
<path fill="#3e4a62" opacity="1.00" d=" M 370.45 260.51 C 370.13 257.97 371.84 255.27 374.37 254.64 C 373.54 256.49 372.68 258.33 372.00 260.23 C 373.16 260.86 374.57 261.35 374.99 262.76 C 373.36 262.44 371.00 262.49 370.45 260.51 Z" />
<path fill="#3e4a62" opacity="1.00" d=" M 379.82 268.74 C 383.55 267.70 384.24 263.40 387.15 261.42 C 386.86 268.95 378.18 272.64 371.61 270.92 C 373.39 268.27 377.30 270.33 379.82 268.74 Z" />
<path fill="#3e4a62" opacity="1.00" d=" M 684.43 318.47 C 686.17 315.51 689.55 313.80 692.97 313.91 C 702.72 313.79 712.48 313.93 722.24 313.87 C 725.39 313.87 728.55 313.87 731.72 313.72 L 732.48 313.67 C 735.99 313.88 739.54 313.69 743.04 314.15 C 745.83 314.53 747.77 316.78 749.74 318.57 C 752.34 333.90 754.72 349.29 756.54 364.73 C 752.13 365.78 747.75 366.92 743.33 367.89 C 737.55 363.82 731.72 359.16 724.58 357.88 C 725.79 361.71 728.49 364.73 730.82 367.91 C 725.53 367.20 720.33 365.85 715.01 365.42 C 710.46 364.95 706.58 369.64 707.83 374.02 C 708.75 378.41 713.48 380.13 717.13 381.75 C 723.46 384.48 730.44 383.26 737.06 382.76 C 744.57 382.45 752.08 382.71 759.59 382.63 C 760.15 388.11 761.37 393.53 761.51 399.05 C 761.60 402.64 759.34 406.23 756.01 407.61 C 752.71 408.61 749.20 408.26 745.80 408.28 C 742.12 408.22 738.43 408.25 734.76 408.26 C 728.53 408.25 722.30 408.25 716.07 408.25 C 711.56 408.17 707.04 408.44 702.54 408.16 C 698.31 407.86 694.80 404.24 694.32 400.09 C 690.64 375.77 687.17 351.43 683.50 327.12 C 683.11 324.24 682.72 321.02 684.43 318.47 Z" />
<path fill="#3e4a62" opacity="1.00" d=" M 213.34 320.17 C 215.50 318.31 218.06 316.70 221.03 316.80 C 236.01 316.64 251.00 316.84 265.99 316.71 C 269.21 316.76 272.80 316.51 275.50 318.60 C 278.45 320.65 279.82 324.43 279.23 327.92 C 277.96 337.38 276.38 346.79 275.11 356.24 C 268.56 356.59 262.37 360.74 259.66 366.72 C 257.97 370.39 259.22 375.12 262.62 377.36 C 265.24 379.30 268.69 379.04 271.78 378.88 C 270.38 387.25 269.42 395.70 267.96 404.07 C 267.29 408.75 262.68 412.10 258.04 411.74 C 243.56 411.73 229.09 411.78 214.61 411.70 C 211.77 411.61 208.86 411.79 206.10 411.04 C 202.33 409.36 199.67 405.09 200.36 400.93 C 200.92 395.89 202.09 390.94 202.40 385.87 C 211.91 385.96 221.46 385.57 230.94 386.58 C 236.15 387.20 241.59 386.81 246.39 384.53 C 249.76 382.97 254.01 381.07 254.55 376.91 C 255.45 372.84 252.11 368.59 247.93 368.60 C 242.40 368.86 237.04 370.41 231.55 371.05 C 233.21 367.71 237.32 365.04 236.99 361.12 C 231.08 362.24 226.17 366.00 221.30 369.28 C 220.02 370.07 218.62 371.31 216.99 370.72 C 213.08 369.99 209.29 368.77 205.41 367.89 C 206.94 355.59 208.84 343.35 210.64 331.09 C 211.10 327.36 211.48 323.51 213.34 320.17 Z" />
</g>
<g id="#fec7c4ff">
<path fill="#fec7c4" opacity="1.00" d=" M 188.08 208.43 C 192.99 208.21 197.77 206.97 202.59 206.10 C 203.90 209.13 205.31 212.14 206.02 215.38 C 205.81 215.57 205.39 215.94 205.18 216.13 C 203.22 213.68 198.40 211.77 196.57 215.32 C 199.78 214.75 202.80 215.55 204.91 218.14 C 205.33 217.83 206.19 217.19 206.62 216.87 L 206.79 216.75 C 209.98 224.91 209.79 233.95 208.02 242.41 C 204.34 249.76 199.75 257.37 191.90 260.83 C 188.17 263.03 183.24 261.77 179.91 264.69 C 179.85 264.13 179.74 263.01 179.68 262.45 C 172.82 260.19 166.82 255.83 162.41 250.12 C 160.16 247.46 158.23 244.55 156.38 241.60 C 153.76 240.57 151.14 239.55 148.61 238.32 C 147.03 236.27 145.18 234.27 144.53 231.70 C 143.51 227.81 144.49 223.81 145.08 219.93 C 146.61 219.17 148.19 218.50 149.85 218.07 C 150.95 221.57 150.98 225.32 152.27 228.77 C 154.23 234.19 157.30 239.14 160.92 243.61 C 161.13 237.87 161.43 232.10 162.60 226.47 C 163.90 220.49 167.53 214.87 172.99 211.92 C 177.54 209.24 182.91 208.71 188.08 208.43 M 170.92 219.11 C 173.32 218.90 174.37 216.37 176.43 215.51 C 178.33 215.07 180.27 215.69 182.17 215.86 C 182.15 213.15 178.98 213.28 177.04 213.38 C 174.00 213.73 171.61 216.20 170.92 219.11 M 179.39 222.43 C 176.90 224.64 179.59 229.50 182.67 227.44 C 185.76 225.40 182.68 219.88 179.39 222.43 M 190.89 221.31 C 191.47 227.04 197.43 231.20 196.44 237.15 C 194.97 236.90 193.51 236.66 192.05 236.42 C 192.04 239.60 197.57 239.22 198.24 236.42 C 198.82 233.71 196.96 231.33 195.89 229.00 C 194.31 226.39 193.54 223.10 190.89 221.31 M 198.22 222.31 C 195.48 224.01 197.48 229.27 200.74 227.74 C 204.25 226.38 201.77 220.20 198.22 222.31 M 179.68 239.23 C 180.91 242.76 184.75 244.17 188.21 244.03 C 188.14 241.75 185.57 242.02 184.06 241.19 C 181.48 240.33 181.79 236.94 179.98 235.38 C 178.33 236.06 179.39 238.03 179.68 239.23 Z" />
<path fill="#fec7c4" opacity="1.00" d=" M 560.36 216.51 C 565.42 214.34 569.20 210.22 573.37 206.78 C 575.60 214.32 578.41 222.08 584.48 227.43 C 584.67 226.35 585.03 224.20 585.22 223.12 C 588.53 231.02 588.34 239.93 586.47 248.16 C 584.24 252.73 580.69 256.49 577.21 260.14 C 575.62 261.17 573.98 262.13 572.33 263.05 C 569.09 264.56 565.64 266.11 561.98 265.84 C 557.81 265.61 553.94 263.77 550.47 261.57 C 548.96 260.50 547.49 259.38 546.15 258.12 C 542.59 254.54 539.43 250.59 536.75 246.31 C 534.64 242.74 529.81 242.74 527.00 239.95 C 522.88 235.87 522.27 229.37 523.99 224.06 C 524.68 221.61 527.39 221.12 529.44 220.35 C 530.57 228.39 533.39 236.47 538.66 242.77 C 539.82 235.80 538.72 228.29 541.68 221.73 C 546.00 218.40 549.90 214.59 553.87 210.84 C 552.96 213.70 552.08 216.56 551.28 219.45 C 547.83 219.44 544.35 220.84 543.12 224.34 C 545.56 225.27 546.52 221.34 548.95 221.57 C 549.90 221.49 550.86 221.42 551.82 221.37 C 553.79 218.49 557.45 218.01 560.36 216.51 M 566.95 221.79 C 568.96 221.48 570.93 220.61 572.99 220.86 C 574.96 221.65 576.48 223.20 578.25 224.33 C 578.81 218.75 568.45 216.28 566.95 221.79 M 547.47 227.55 C 544.75 229.29 546.64 234.44 549.90 233.14 C 553.60 231.91 551.05 225.58 547.47 227.55 M 556.53 232.80 C 556.18 236.27 554.41 239.88 555.61 243.33 C 556.72 246.12 560.33 245.37 562.24 243.88 C 562.78 240.00 557.09 246.26 556.86 241.92 C 556.78 236.74 559.00 231.78 558.98 226.57 C 556.61 227.70 557.17 230.68 556.53 232.80 M 571.10 227.05 C 568.71 229.00 570.45 233.67 573.69 232.66 C 577.49 231.29 574.80 224.87 571.10 227.05 M 570.33 240.96 C 569.67 242.79 569.21 244.70 568.44 246.50 C 567.11 248.54 563.84 248.38 562.96 250.81 C 568.04 251.69 573.72 245.58 570.33 240.96 Z" />
<path fill="#fec7c4" opacity="1.00" d=" M 746.61 211.39 C 747.63 208.30 751.33 207.67 753.85 206.24 C 755.29 208.37 756.24 211.46 759.06 212.11 C 761.88 212.03 764.20 210.10 766.65 208.89 C 767.77 211.43 768.85 213.98 769.75 216.61 C 771.15 216.68 772.57 216.71 773.98 216.92 C 775.88 217.93 777.16 219.76 778.82 221.10 C 779.49 217.03 774.90 214.11 771.22 215.13 C 770.60 214.80 769.98 214.47 769.38 214.13 C 772.12 212.60 774.88 211.10 777.72 209.74 C 779.86 217.48 782.03 225.21 784.26 232.93 C 784.97 235.20 786.17 238.16 789.02 238.14 C 795.20 237.83 799.44 232.69 803.35 228.49 C 803.02 231.89 802.54 235.53 800.21 238.21 C 797.81 241.25 793.82 242.03 790.28 242.91 C 788.79 244.83 787.33 246.77 785.95 248.77 C 779.80 254.25 772.71 259.58 764.11 259.87 C 757.94 258.97 752.20 255.54 748.63 250.41 C 744.00 244.47 742.54 236.93 742.26 229.59 C 743.37 223.45 744.57 217.29 746.61 211.39 M 747.00 216.97 C 748.82 216.39 750.22 214.97 752.04 214.39 C 753.49 214.50 754.94 214.65 756.40 214.85 C 754.32 210.81 747.91 213.02 747.00 216.97 M 751.54 220.64 C 748.45 221.66 749.64 227.22 752.97 226.07 C 756.13 225.23 754.83 219.70 751.54 220.64 M 768.47 222.46 C 765.31 223.32 766.76 229.11 770.04 227.74 C 773.10 226.88 771.73 221.21 768.47 222.46 M 753.67 234.05 C 753.79 236.46 756.45 236.66 758.24 237.06 C 758.06 235.33 756.37 234.79 755.15 233.97 C 756.03 232.34 756.96 230.73 757.85 229.11 C 755.08 228.56 754.03 231.93 753.67 234.05 M 760.95 242.31 C 758.54 243.46 754.54 240.77 753.45 243.93 C 760.32 245.86 769.97 242.60 770.47 234.50 C 767.23 237.05 765.65 241.86 760.95 242.31 Z" />
<path fill="#fec7c4" opacity="1.00" d=" M 377.08 237.17 C 383.62 237.89 390.39 236.76 395.93 233.09 C 394.93 240.24 397.43 247.12 398.39 254.11 C 398.85 259.99 398.64 265.97 397.71 271.79 C 395.08 275.93 391.12 279.09 387.23 282.01 C 381.14 285.51 373.32 286.45 367.22 282.44 C 364.00 280.73 361.15 278.40 358.77 275.65 C 357.35 273.97 356.02 272.22 354.69 270.48 C 355.43 260.38 354.33 249.15 360.53 240.43 C 364.62 235.73 371.54 236.84 377.08 237.17 M 360.72 244.12 C 362.16 243.14 363.47 241.93 365.09 241.23 C 366.90 241.18 368.66 241.71 370.45 241.96 C 368.72 237.54 360.14 239.26 360.72 244.12 M 384.64 241.61 C 386.35 241.83 388.09 241.89 389.79 242.29 C 391.40 243.38 392.38 245.22 394.04 246.31 C 394.59 241.66 387.80 237.88 384.64 241.61 M 364.44 248.62 C 361.47 249.98 363.54 255.10 366.72 253.63 C 370.29 252.49 367.72 246.75 364.44 248.62 M 386.39 249.36 C 383.04 250.25 384.64 255.73 387.93 254.68 C 391.47 253.96 389.89 248.07 386.39 249.36 M 370.45 260.51 C 371.00 262.49 373.36 262.44 374.99 262.76 C 374.57 261.35 373.16 260.86 372.00 260.23 C 372.68 258.33 373.54 256.49 374.37 254.64 C 371.84 255.27 370.13 257.97 370.45 260.51 M 379.82 268.74 C 377.30 270.33 373.39 268.27 371.61 270.92 C 378.18 272.64 386.86 268.95 387.15 261.42 C 384.24 263.40 383.55 267.70 379.82 268.74 Z" />
<path fill="#fec7c4" opacity="1.00" d=" M 403.88 264.37 C 407.23 257.38 409.89 250.07 410.81 242.32 C 415.38 244.75 415.40 250.82 414.32 255.21 C 413.14 260.13 408.68 263.45 403.88 264.37 Z" />
<path fill="#fec7c4" opacity="1.00" d=" M 800.31 332.27 C 808.82 331.45 817.34 330.81 825.85 330.11 C 826.91 334.23 827.72 338.40 828.46 342.59 C 830.65 352.74 832.13 364.22 826.57 373.58 C 822.59 380.18 814.52 382.76 807.17 382.42 C 807.09 382.64 806.95 383.07 806.88 383.29 C 804.94 382.93 803.00 382.57 801.05 382.58 C 787.23 382.68 773.41 382.60 759.59 382.63 C 752.08 382.71 744.57 382.45 737.06 382.76 C 730.44 383.26 723.46 384.48 717.13 381.75 C 713.48 380.13 708.75 378.41 707.83 374.02 C 706.58 369.64 710.46 364.95 715.01 365.42 C 720.33 365.85 725.53 367.20 730.82 367.91 C 728.49 364.73 725.79 361.71 724.58 357.88 C 731.72 359.16 737.55 363.82 743.33 367.89 C 747.75 366.92 752.13 365.78 756.54 364.73 C 772.27 360.68 788.09 356.95 803.79 352.79 C 802.49 345.97 801.43 339.12 800.31 332.27 Z" />
<path fill="#fec7c4" opacity="1.00" d=" M 126.87 342.20 C 137.06 346.56 147.63 350.46 158.71 351.73 C 158.49 353.16 158.27 354.61 158.06 356.05 C 173.82 360.08 189.62 363.95 205.41 367.89 C 209.29 368.77 213.08 369.99 216.99 370.72 C 218.62 371.31 220.02 370.07 221.30 369.28 C 226.17 366.00 231.08 362.24 236.99 361.12 C 237.32 365.04 233.21 367.71 231.55 371.05 C 237.04 370.41 242.40 368.86 247.93 368.60 C 252.11 368.59 255.45 372.84 254.55 376.91 C 254.01 381.07 249.76 382.97 246.39 384.53 C 241.59 386.81 236.15 387.20 230.94 386.58 C 221.46 385.57 211.91 385.96 202.40 385.87 C 184.27 385.81 166.13 385.88 147.99 385.84 C 142.94 385.92 137.92 384.83 133.38 382.62 C 129.67 379.79 126.89 375.82 125.65 371.32 C 122.54 361.80 124.69 351.67 126.87 342.20 Z" />
<path fill="#fec7c4" opacity="1.00" d=" M 275.11 356.24 C 277.74 357.19 280.71 358.29 282.08 360.95 C 284.57 365.49 283.78 371.30 280.28 375.09 C 277.59 376.65 274.78 378.04 271.78 378.88 C 268.69 379.04 265.24 379.30 262.62 377.36 C 259.22 375.12 257.97 370.39 259.66 366.72 C 262.37 360.74 268.56 356.59 275.11 356.24 Z" />
<path fill="#fec7c4" opacity="1.00" d=" M 716.07 408.25 C 722.30 408.25 728.53 408.25 734.76 408.26 C 729.10 431.64 722.39 454.77 716.05 477.97 C 715.67 484.78 718.69 491.39 717.81 498.29 C 713.25 497.38 713.63 491.61 710.42 489.21 C 706.87 495.64 705.90 503.98 699.62 508.57 C 696.96 510.70 693.45 510.42 690.29 509.99 C 689.62 504.41 689.00 498.69 690.24 493.15 C 691.43 487.77 694.40 483.01 697.74 478.71 C 700.02 475.80 702.11 472.63 702.84 468.94 C 704.35 461.91 705.84 454.87 707.37 447.83 C 710.35 434.66 713.18 421.45 716.07 408.25 Z" />
<path fill="#fec7c4" opacity="1.00" d=" M 506.01 455.21 C 511.61 454.47 517.19 453.51 522.84 453.18 C 525.52 458.86 528.24 465.51 526.91 471.91 C 525.00 472.95 523.93 471.22 523.13 469.77 C 522.59 467.86 522.04 465.96 521.52 464.05 C 521.38 465.91 521.45 467.83 520.87 469.63 C 516.14 471.91 511.09 473.45 506.10 475.05 C 503.98 468.66 504.12 461.63 506.01 455.21 Z" />
<path fill="#fec7c4" opacity="1.00" d=" M 320.26 481.28 C 326.05 480.45 331.82 479.31 337.69 479.20 C 339.35 484.73 341.95 490.17 341.80 496.07 C 341.96 497.40 340.40 498.81 339.14 498.00 C 337.38 494.88 336.56 491.35 335.35 488.01 C 335.35 490.72 335.32 493.44 335.22 496.15 C 330.00 497.13 325.24 499.68 320.08 500.91 C 318.64 494.45 318.29 487.68 320.26 481.28 Z" />
<path fill="#fec7c4" opacity="1.00" d=" M 648.46 481.27 C 653.33 480.38 658.19 479.39 663.08 478.57 C 667.10 485.20 671.77 492.02 672.09 500.03 C 672.26 504.80 671.95 509.76 670.17 514.23 C 668.13 517.28 663.52 515.76 661.22 513.75 C 654.73 508.28 655.40 498.95 651.69 491.91 C 649.77 495.49 648.28 499.90 644.08 501.38 C 643.64 494.36 646.86 487.95 648.46 481.27 Z" />
<path fill="#fec7c4" opacity="1.00" d=" M 414.40 480.18 C 420.09 480.74 425.87 481.16 431.42 482.62 C 433.98 488.81 433.11 495.76 431.92 502.18 C 426.61 500.66 421.42 498.79 416.28 496.80 C 416.41 494.52 416.52 492.25 416.60 489.97 C 415.56 492.53 414.64 495.15 413.92 497.82 C 413.04 499.01 411.67 499.89 410.37 498.71 C 409.49 492.26 412.23 486.10 414.40 480.18 Z" />
<path fill="#fec7c4" opacity="1.00" d=" M 341.18 583.04 C 348.42 582.92 355.66 582.96 362.90 583.02 C 357.82 640.38 352.81 697.74 347.85 755.11 C 347.76 756.29 347.72 757.48 347.71 758.69 C 343.52 758.44 339.33 758.30 335.14 758.05 C 334.90 756.29 334.64 754.55 334.41 752.80 C 330.99 726.31 327.59 699.82 324.67 673.27 C 323.38 654.47 324.16 635.59 326.03 616.86 C 326.91 616.07 327.50 614.55 328.90 614.72 C 333.92 614.38 338.95 614.78 343.97 614.69 C 342.23 604.22 340.98 593.67 341.18 583.04 Z" />
<path fill="#fec7c4" opacity="1.00" d=" M 380.02 583.02 C 390.29 583.00 400.56 582.96 410.82 583.03 C 410.87 593.99 409.87 604.93 408.02 615.73 C 411.99 615.65 415.97 615.74 419.94 616.00 C 420.24 617.06 420.52 618.14 420.80 619.22 C 424.29 637.59 426.69 656.22 426.91 674.93 C 427.73 701.69 424.28 728.32 423.02 755.01 C 423.02 756.36 423.05 757.72 423.11 759.09 C 418.62 759.16 414.15 758.64 409.70 758.19 C 409.66 756.92 409.60 755.69 409.48 754.45 C 399.59 697.32 389.67 640.19 380.02 583.02 Z" />
</g>
<g id="#fdc7c5ff">
<path fill="#fdc7c5" opacity="1.00" d=" M 596.38 218.60 C 602.25 221.50 602.21 229.22 600.46 234.62 C 598.65 239.51 593.48 241.49 588.99 243.16 C 592.76 235.48 595.70 227.17 596.38 218.60 Z" />
</g>
<g id="#3e4a61ff">
<path fill="#3e4a61" opacity="1.00" d=" M 751.54 220.64 C 754.83 219.70 756.13 225.23 752.97 226.07 C 749.64 227.22 748.45 221.66 751.54 220.64 Z" />
</g>
<g id="#3c4b61ff">
<path fill="#3c4b61" opacity="1.00" d=" M 179.39 222.43 C 182.68 219.88 185.76 225.40 182.67 227.44 C 179.59 229.50 176.90 224.64 179.39 222.43 Z" />
<path fill="#3c4b61" opacity="1.00" d=" M 768.47 222.46 C 771.73 221.21 773.10 226.88 770.04 227.74 C 766.76 229.11 765.31 223.32 768.47 222.46 Z" />
</g>
<g id="#3e4a64ff">
<path fill="#3e4a64" opacity="1.00" d=" M 198.22 222.31 C 201.77 220.20 204.25 226.38 200.74 227.74 C 197.48 229.27 195.48 224.01 198.22 222.31 Z" />
</g>
<g id="#3d4a5fff">
<path fill="#3d4a5f" opacity="1.00" d=" M 547.47 227.55 C 551.05 225.58 553.60 231.91 549.90 233.14 C 546.64 234.44 544.75 229.29 547.47 227.55 Z" />
</g>
<g id="#3f4a60ff">
<path fill="#3f4a60" opacity="1.00" d=" M 571.10 227.05 C 574.80 224.87 577.49 231.29 573.69 232.66 C 570.45 233.67 568.71 229.00 571.10 227.05 Z" />
</g>
<g id="#c45568ff">
<path fill="#c45568" opacity="1.00" d=" M 148.61 238.32 C 151.14 239.55 153.76 240.57 156.38 241.60 C 158.23 244.55 160.16 247.46 162.41 250.12 C 162.07 251.59 161.73 253.07 161.35 254.54 C 155.00 251.10 151.30 244.76 148.61 238.32 Z" />
</g>
<g id="#fec7c5ff">
<path fill="#fec7c5" opacity="1.00" d=" M 340.75 255.16 C 338.73 249.96 338.68 242.54 344.13 239.41 C 343.79 246.92 345.44 254.39 348.55 261.21 C 345.22 260.43 341.96 258.53 340.75 255.16 Z" />
</g>
<g id="#3e4a5eff">
<path fill="#3e4a5e" opacity="1.00" d=" M 364.44 248.62 C 367.72 246.75 370.29 252.49 366.72 253.63 C 363.54 255.10 361.47 249.98 364.44 248.62 Z" />
</g>
<g id="#404960ff">
<path fill="#404960" opacity="1.00" d=" M 386.39 249.36 C 389.89 248.07 391.47 253.96 387.93 254.68 C 384.64 255.73 383.04 250.25 386.39 249.36 Z" />
</g>
<g id="#feb1abff">
<path fill="#feb1ab" opacity="1.00" d=" M 764.11 259.87 C 772.71 259.58 779.80 254.25 785.95 248.77 C 785.57 252.41 785.32 256.07 785.13 259.73 C 784.88 263.55 785.19 267.50 787.01 270.94 C 782.13 276.72 777.43 283.07 770.62 286.71 C 768.21 288.07 764.81 288.39 762.76 286.23 C 759.49 282.86 759.18 277.84 758.45 273.46 C 760.05 272.42 761.78 271.50 763.10 270.09 C 764.03 266.79 763.76 263.26 764.11 259.87 Z" />
</g>
<g id="#f2b5b4ff">
<path fill="#f2b5b4" opacity="1.00" d=" M 162.41 250.12 C 166.82 255.83 172.82 260.19 179.68 262.45 C 179.74 263.01 179.85 264.13 179.91 264.69 C 180.00 265.49 180.18 267.10 180.27 267.91 C 181.15 268.57 182.04 269.23 182.92 269.92 C 184.04 273.55 185.79 277.08 185.93 280.93 C 185.92 283.45 182.84 283.45 181.10 282.83 C 170.33 279.96 161.83 272.28 153.94 264.79 C 156.98 261.84 160.71 259.04 161.35 254.54 C 161.73 253.07 162.07 251.59 162.41 250.12 Z" />
<path fill="#f2b5b4" opacity="1.00" d=" M 367.22 282.44 C 373.32 286.45 381.14 285.51 387.23 282.01 C 386.87 284.62 386.50 287.23 386.21 289.86 C 386.07 291.06 385.94 292.27 385.83 293.48 C 384.92 302.29 383.21 312.23 375.84 318.07 C 368.41 312.24 366.39 302.11 366.12 293.17 C 366.28 291.73 366.51 290.30 366.70 288.86 C 366.96 286.73 367.10 284.59 367.22 282.44 Z" />
</g>
<g id="#4e597fff">
<path fill="#4e597f" opacity="1.00" d=" M 528.77 273.48 C 532.36 266.34 538.75 260.98 546.15 258.12 C 547.49 259.38 548.96 260.50 550.47 261.57 C 549.56 261.84 548.66 262.11 547.76 262.36 C 542.44 262.72 537.55 266.31 534.55 270.58 C 531.28 276.13 527.19 282.22 528.77 289.00 C 529.30 293.48 532.97 296.40 535.16 300.05 C 536.20 303.85 535.36 307.84 533.02 310.99 C 530.08 315.09 530.84 320.27 530.79 325.00 C 528.77 329.30 526.35 333.42 523.56 337.28 C 525.01 338.68 526.48 340.08 528.15 341.22 C 527.16 342.54 526.17 343.87 525.20 345.21 C 523.54 343.72 521.85 342.27 520.16 340.83 C 518.88 341.74 517.62 342.66 516.32 343.51 C 515.56 342.03 514.81 340.57 514.06 339.09 C 515.25 338.49 516.39 337.80 517.56 337.13 C 511.78 326.06 511.05 312.74 514.58 300.86 C 516.10 295.66 519.06 290.47 524.38 288.45 C 525.07 283.27 526.39 278.15 528.77 273.48 M 523.38 294.39 C 520.50 297.24 519.29 301.29 518.30 305.11 C 516.28 314.29 516.65 324.33 520.87 332.87 C 525.81 325.97 528.87 317.81 530.32 309.48 C 530.93 304.78 531.33 299.55 528.77 295.33 C 527.74 293.49 524.93 292.79 523.38 294.39 Z" />
<path fill="#4e597f" opacity="1.00" d=" M 352.57 296.35 C 356.58 292.71 361.51 290.30 366.70 288.86 C 366.51 290.30 366.28 291.73 366.12 293.17 C 363.16 294.07 360.22 295.02 357.30 296.01 C 357.13 296.65 356.79 297.93 356.62 298.56 C 355.87 299.47 355.08 300.35 354.33 301.25 C 350.35 305.50 348.92 311.33 347.99 316.91 C 349.83 318.59 351.56 320.41 352.90 322.53 C 354.18 328.52 353.83 334.71 352.43 340.65 C 350.34 347.34 347.54 353.87 343.25 359.46 C 344.52 360.64 345.81 361.82 347.25 362.80 C 346.37 363.98 345.49 365.16 344.61 366.35 C 343.17 365.08 341.73 363.82 340.28 362.57 C 339.06 363.44 337.85 364.33 336.59 365.15 C 336.10 363.74 335.61 362.34 335.12 360.95 C 336.09 360.39 337.03 359.78 337.98 359.19 C 332.90 349.57 332.31 337.98 335.31 327.63 C 336.63 323.03 339.17 318.42 343.86 316.59 C 344.90 309.28 347.64 302.23 352.43 296.54 C 352.47 296.50 352.54 296.40 352.57 296.35 M 343.37 321.56 C 340.94 323.75 339.83 326.98 338.95 330.05 C 336.85 338.18 337.17 347.05 340.45 354.83 C 340.74 354.78 341.32 354.67 341.61 354.61 C 346.75 346.51 350.28 336.78 349.42 327.08 C 349.31 324.17 346.91 319.24 343.37 321.56 Z" />
</g>
<g id="#4e597eff">
<path fill="#4e597e" opacity="1.00" d=" M 572.33 263.05 C 573.98 262.13 575.62 261.17 577.21 260.14 C 582.59 263.28 587.77 266.98 591.47 272.08 C 600.45 284.87 600.33 301.19 600.45 316.16 C 602.41 317.63 604.72 319.27 604.90 321.97 C 605.67 326.31 601.44 330.56 597.09 329.69 C 593.77 329.40 591.94 326.34 590.82 323.57 C 591.25 322.11 591.67 320.64 592.21 319.23 C 593.31 318.08 594.67 317.14 595.60 315.84 C 596.08 308.13 595.50 300.36 594.36 292.72 C 594.43 290.10 594.98 287.52 594.90 284.90 C 594.44 281.38 592.31 278.41 590.83 275.28 C 588.81 270.92 586.11 266.63 581.71 264.35 C 579.91 263.63 578.25 261.42 576.17 262.21 C 576.02 262.92 575.71 264.34 575.56 265.05 C 574.49 264.37 573.40 263.71 572.33 263.05 M 596.28 319.38 C 593.59 320.47 593.48 324.73 595.82 326.25 C 598.22 327.80 602.16 326.17 601.94 323.05 C 602.41 320.02 598.79 318.11 596.28 319.38 Z" />
</g>
<g id="#fdb3b0ff">
<path fill="#fdb3b0" opacity="1.00" d=" M 550.47 261.57 C 553.94 263.77 557.81 265.61 561.98 265.84 C 565.64 266.11 569.09 264.56 572.33 263.05 C 573.40 263.71 574.49 264.37 575.56 265.05 C 575.60 265.73 575.69 267.11 575.73 267.80 C 574.50 277.58 570.47 287.78 561.62 293.04 L 561.41 292.92 C 552.37 288.27 548.84 278.01 547.02 268.67 C 547.18 266.56 547.47 264.46 547.76 262.36 C 548.66 262.11 549.56 261.84 550.47 261.57 Z" />
</g>
<g id="#fdfefdff">
<path fill="#fdfefd" opacity="1.00" d=" M 152.56 266.16 C 152.90 265.82 153.60 265.13 153.94 264.79 C 161.83 272.28 170.33 279.96 181.10 282.83 C 182.84 283.45 185.92 283.45 185.93 280.93 C 185.79 277.08 184.04 273.55 182.92 269.92 C 185.21 271.69 187.28 273.75 189.11 276.00 C 190.88 280.80 192.34 285.72 193.23 290.77 C 176.70 289.24 163.47 277.73 152.56 266.16 Z" />
</g>
<g id="#2e5da7ff">
<path fill="#2e5da7" opacity="1.00" d=" M 151.24 267.51 C 151.68 267.06 152.11 266.61 152.56 266.16 C 163.47 277.73 176.70 289.24 193.23 290.77 C 192.34 285.72 190.88 280.80 189.11 276.00 L 188.70 274.55 C 190.32 276.13 191.82 277.83 193.16 279.65 C 193.83 285.27 195.76 290.65 196.32 296.30 C 183.16 295.11 172.10 286.99 162.79 278.21 C 158.87 274.72 155.71 270.37 151.24 267.51 Z" />
</g>
<g id="#427ed6ff">
<path fill="#427ed6" opacity="1.00" d=" M 142.85 277.98 C 145.43 274.32 148.06 270.68 151.24 267.51 C 155.71 270.37 158.87 274.72 162.79 278.21 C 172.10 286.99 183.16 295.11 196.32 296.30 C 195.76 290.65 193.83 285.27 193.16 279.65 C 195.21 282.37 197.10 285.20 198.83 288.13 C 204.73 298.27 210.56 308.67 213.34 320.17 C 211.48 323.51 211.10 327.36 210.64 331.09 C 208.84 343.35 206.94 355.59 205.41 367.89 C 189.62 363.95 173.82 360.08 158.06 356.05 C 158.27 354.61 158.49 353.16 158.71 351.73 C 161.21 351.61 164.21 352.13 166.27 350.38 C 167.69 347.42 168.21 344.15 168.99 341.00 C 172.14 326.96 174.42 312.32 172.03 297.98 C 170.85 289.89 166.61 281.68 158.96 278.03 C 153.90 275.34 148.03 276.16 142.85 277.98 M 174.00 321.61 C 174.09 323.75 174.18 325.89 174.26 328.03 C 181.58 329.73 189.21 329.00 196.39 327.01 C 196.37 324.79 196.31 322.56 196.23 320.34 C 188.92 321.79 181.43 322.41 174.00 321.61 Z" />
<path fill="#427ed6" opacity="1.00" d=" M 561.62 293.04 C 570.47 287.78 574.50 277.58 575.73 267.80 C 576.41 278.62 576.69 289.46 577.23 300.29 C 571.69 298.66 566.59 295.91 561.62 293.04 Z" />
<path fill="#427ed6" opacity="1.00" d=" M 547.02 268.67 C 548.84 278.01 552.37 288.27 561.41 292.92 C 556.29 296.15 550.64 298.35 545.17 300.87 C 545.09 300.14 544.93 298.70 544.85 297.97 C 545.47 288.20 546.21 278.43 547.02 268.67 Z" />
<path fill="#427ed6" opacity="1.00" d=" M 739.03 273.60 C 744.32 272.91 749.68 273.08 755.01 272.92 C 750.47 283.93 752.72 297.48 760.98 306.11 C 775.79 301.56 786.32 287.72 789.69 272.94 C 794.88 273.92 800.14 274.54 805.38 275.29 C 801.34 277.78 796.70 280.12 794.63 284.66 C 793.03 287.51 793.24 290.87 793.81 293.97 C 796.05 306.72 798.02 319.52 800.31 332.27 C 801.43 339.12 802.49 345.97 803.79 352.79 C 788.09 356.95 772.27 360.68 756.54 364.73 C 754.72 349.29 752.34 333.90 749.74 318.57 C 751.77 318.55 753.80 318.54 755.84 318.54 C 755.90 316.61 755.96 314.68 756.04 312.75 C 748.20 313.15 740.16 311.73 732.48 313.67 L 731.72 313.72 C 732.55 308.42 733.91 303.24 735.06 298.01 C 736.98 290.10 734.82 281.31 739.47 274.13 L 739.03 273.60 Z" />
<path fill="#427ed6" opacity="1.00" d=" M 525.20 345.21 C 526.17 343.87 527.16 342.54 528.15 341.22 C 530.61 342.68 533.52 343.69 535.32 346.03 C 536.05 347.96 534.21 350.57 532.04 349.92 C 529.36 349.03 527.26 347.04 525.20 345.21 Z" />
<path fill="#427ed6" opacity="1.00" d=" M 133.38 382.62 C 137.92 384.83 142.94 385.92 147.99 385.84 C 166.13 385.88 184.27 385.81 202.40 385.87 C 202.09 390.94 200.92 395.89 200.36 400.93 C 199.67 405.09 202.33 409.36 206.10 411.04 C 208.86 411.79 211.77 411.61 214.61 411.70 C 215.82 423.82 218.15 435.79 219.59 447.89 C 221.63 461.39 223.42 474.93 225.59 488.41 C 225.17 488.63 224.34 489.07 223.93 489.29 C 201.84 492.91 179.35 494.92 156.95 493.62 C 146.76 492.91 136.53 491.54 126.74 488.52 C 126.31 488.39 125.45 488.12 125.02 487.98 C 128.51 464.17 131.04 440.21 132.33 416.18 C 132.88 405.00 133.31 393.81 133.38 382.62 M 170.34 436.01 C 162.93 443.37 155.69 450.90 148.14 458.13 C 147.40 459.01 146.28 459.77 146.11 461.00 C 147.91 463.66 150.39 465.75 152.69 467.96 C 153.60 468.91 154.51 469.87 155.43 470.84 C 164.21 462.92 172.29 454.24 180.66 445.89 C 179.58 444.88 178.49 443.87 177.40 442.88 C 175.16 440.48 172.95 438.02 170.34 436.01 Z" />
<path fill="#427ed6" opacity="1.00" d=" M 759.59 382.63 C 773.41 382.60 787.23 382.68 801.05 382.58 C 803.00 382.57 804.94 382.93 806.88 383.29 C 804.84 388.36 804.16 394.05 805.38 399.41 C 806.82 406.14 811.64 411.33 814.59 417.39 C 824.70 436.72 833.23 457.75 833.47 479.87 C 796.30 479.87 759.14 479.80 721.97 479.90 C 721.58 465.13 726.13 450.79 731.37 437.16 C 735.46 427.20 740.02 417.39 745.80 408.28 C 749.20 408.26 752.71 408.61 756.01 407.61 C 759.34 406.23 761.60 402.64 761.51 399.05 C 761.37 393.53 760.15 388.11 759.59 382.63 M 728.92 452.31 C 730.98 454.89 733.47 457.06 735.81 459.39 C 736.79 460.46 737.80 461.53 738.82 462.60 C 747.24 454.56 755.35 446.19 763.54 437.93 C 762.50 436.89 761.46 435.86 760.42 434.83 C 758.13 432.58 755.93 430.24 753.66 427.98 C 745.18 435.84 737.35 444.39 728.92 452.31 M 793.48 434.82 C 792.43 435.82 791.38 436.83 790.36 437.86 C 798.52 446.22 806.72 454.55 815.15 462.64 C 816.12 461.56 817.10 460.49 818.08 459.42 C 820.47 457.14 822.92 454.92 824.98 452.32 C 816.73 444.36 808.69 436.19 800.67 428.00 C 798.07 430.06 795.81 432.48 793.48 434.82 Z" />
<path fill="#427ed6" opacity="1.00" d=" M 132.27 493.53 L 133.97 493.88 C 150.65 497.59 167.85 498.56 184.88 497.67 C 186.54 511.41 187.73 525.21 189.25 538.98 C 190.28 547.85 190.72 556.81 192.52 565.58 C 192.04 573.12 193.61 580.56 194.16 588.06 C 194.91 593.91 194.81 599.90 196.34 605.64 C 196.07 611.12 197.24 616.52 197.75 621.96 C 198.38 628.86 200.32 635.69 199.57 642.67 C 198.85 650.45 199.29 658.28 198.58 666.07 C 198.33 668.87 198.35 671.69 198.50 674.50 C 197.95 677.35 197.81 680.26 197.71 683.16 C 196.91 708.77 196.05 734.53 199.01 760.04 C 199.40 763.16 199.78 766.30 200.04 769.45 C 195.63 769.03 191.22 769.76 186.82 769.45 C 186.45 769.16 185.72 768.59 185.35 768.30 C 184.62 765.86 183.93 763.41 183.30 760.95 C 179.64 746.31 176.24 731.61 173.35 716.81 C 171.05 704.69 168.93 692.52 167.55 680.25 C 166.83 673.99 167.09 667.62 165.52 661.47 C 166.81 655.38 166.19 649.06 167.45 642.94 C 166.90 637.15 164.99 631.54 163.98 625.81 C 157.18 595.64 150.57 565.43 143.82 535.26 C 140.88 521.11 136.77 507.25 132.27 493.53 Z" />
</g>
<g id="#fff4f2ff">
<path fill="#fff4f2" opacity="1.00" d=" M 591.47 272.08 C 596.99 272.93 602.43 274.75 607.06 277.95 C 623.01 288.57 633.78 306.18 636.64 325.07 C 639.62 347.72 642.14 370.43 645.19 393.07 C 650.80 421.10 657.19 448.98 662.70 477.04 C 662.79 477.42 662.99 478.19 663.08 478.57 C 658.19 479.39 653.33 480.38 648.46 481.27 C 646.97 481.52 645.48 481.76 644.00 482.00 C 643.36 480.63 642.71 479.27 642.14 477.89 C 638.13 466.07 633.70 454.40 629.50 442.65 C 627.39 437.33 625.79 431.80 623.22 426.68 C 622.71 436.47 624.20 446.24 624.19 456.04 C 625.07 466.78 624.91 477.58 625.73 488.32 C 627.11 504.51 626.94 520.79 628.16 537.00 C 628.12 548.29 629.96 559.53 629.20 570.82 C 624.68 571.09 620.16 571.35 615.65 571.61 C 609.75 572.14 603.42 572.05 598.29 568.70 C 588.92 562.93 583.98 551.80 583.57 541.07 C 582.84 510.16 582.11 479.25 581.37 448.33 C 580.61 416.35 579.70 384.37 578.92 352.39 C 583.54 343.05 586.24 332.92 590.82 323.57 C 591.94 326.34 593.77 329.40 597.09 329.69 C 601.44 330.56 605.67 326.31 604.90 321.97 C 604.72 319.27 602.41 317.63 600.45 316.16 C 600.33 301.19 600.45 284.87 591.47 272.08 M 594.12 469.90 C 594.08 478.91 593.52 487.97 594.80 496.93 C 595.44 500.13 593.71 504.77 597.32 506.62 C 603.12 507.54 609.06 506.97 614.91 506.91 C 615.71 505.36 616.87 503.86 616.85 502.03 C 617.06 496.35 616.83 490.66 616.93 484.98 C 616.81 482.20 617.23 478.97 615.23 476.71 C 612.61 474.91 609.35 474.51 606.40 473.49 C 602.28 472.36 598.44 470.17 594.12 469.90 Z" />
<path fill="#fff4f2" opacity="1.00" d=" M 520.30 276.31 C 522.98 275.01 525.63 273.09 528.77 273.48 C 526.39 278.15 525.07 283.27 524.38 288.45 C 519.06 290.47 516.10 295.66 514.58 300.86 C 511.05 312.74 511.78 326.06 517.56 337.13 C 516.39 337.80 515.25 338.49 514.06 339.09 C 511.64 339.68 509.12 339.90 506.81 340.86 C 504.42 341.83 505.30 346.17 507.89 346.17 C 510.87 346.04 513.74 344.98 516.32 343.51 C 517.62 342.66 518.88 341.74 520.16 340.83 C 521.85 342.27 523.54 343.72 525.20 345.21 C 527.26 347.04 529.36 349.03 532.04 349.92 C 534.21 350.57 536.05 347.96 535.32 346.03 C 533.52 343.69 530.61 342.68 528.15 341.22 C 526.48 340.08 525.01 338.68 523.56 337.28 C 526.35 333.42 528.77 329.30 530.79 325.00 C 533.49 328.65 534.08 333.26 535.77 337.38 C 537.53 341.80 538.99 346.33 540.40 350.88 C 540.96 349.81 541.52 348.74 542.07 347.66 C 540.59 380.27 538.98 412.87 537.54 445.47 C 536.33 472.33 535.06 499.18 533.92 526.03 C 533.63 534.82 531.57 543.62 527.33 551.35 C 522.19 560.92 513.45 569.02 502.64 571.43 C 499.38 572.06 496.06 572.09 492.76 572.07 C 493.48 557.76 494.70 543.47 495.55 529.16 C 497.35 512.15 497.92 495.04 499.49 478.01 C 499.81 470.63 500.94 463.28 500.91 455.88 C 501.05 453.74 499.62 452.04 498.51 450.38 C 495.59 446.36 492.85 442.22 489.99 438.16 C 482.37 427.03 474.88 415.82 467.15 404.76 C 465.51 402.36 463.67 399.89 463.28 396.93 C 462.60 392.09 464.42 387.44 465.72 382.88 C 473.45 356.55 481.52 330.18 493.39 305.37 C 497.60 297.83 501.58 289.94 507.81 283.81 C 511.33 280.36 516.00 278.56 520.30 276.31 M 494.30 388.05 C 495.19 391.10 496.92 393.81 498.31 396.64 C 500.25 400.20 501.60 404.21 504.61 407.08 C 505.58 392.70 506.90 378.34 507.61 363.95 C 502.47 371.56 498.59 379.96 494.30 388.05 M 506.01 455.21 C 504.12 461.63 503.98 468.66 506.10 475.05 C 504.63 475.53 503.01 475.79 501.76 476.74 C 498.83 482.93 501.11 489.91 500.52 496.44 C 500.16 499.41 500.60 502.46 501.70 505.24 C 502.78 507.12 505.19 506.99 507.07 507.10 C 511.01 507.09 514.97 507.27 518.90 506.88 C 521.72 506.05 522.97 502.74 522.89 500.02 C 522.96 489.94 523.08 479.85 523.13 469.77 C 523.93 471.22 525.00 472.95 526.91 471.91 C 528.24 465.51 525.52 458.86 522.84 453.18 C 517.19 453.51 511.61 454.47 506.01 455.21 Z" />
<path fill="#fff4f2" opacity="1.00" d=" M 584.20 302.89 C 586.81 298.82 590.68 295.77 594.36 292.72 C 595.50 300.36 596.08 308.13 595.60 315.84 C 594.67 317.14 593.31 318.08 592.21 319.23 C 591.27 312.99 587.06 308.25 584.20 302.89 Z" />
<path fill="#fff4f2" opacity="1.00" d=" M 523.38 294.39 C 524.93 292.79 527.74 293.49 528.77 295.33 C 531.33 299.55 530.93 304.78 530.32 309.48 C 528.87 317.81 525.81 325.97 520.87 332.87 C 516.65 324.33 516.28 314.29 518.30 305.11 C 519.29 301.29 520.50 297.24 523.38 294.39 Z" />
<path fill="#fff4f2" opacity="1.00" d=" M 338.23 298.27 C 342.08 294.72 347.74 295.98 352.43 296.54 C 347.64 302.23 344.90 309.28 343.86 316.59 C 339.17 318.42 336.63 323.03 335.31 327.63 C 332.31 337.98 332.90 349.57 337.98 359.19 C 337.03 359.78 336.09 360.39 335.12 360.95 C 332.30 361.97 326.40 361.26 327.55 365.91 C 329.77 368.82 333.92 366.23 336.59 365.15 C 337.85 364.33 339.06 363.44 340.28 362.57 C 341.73 363.82 343.17 365.08 344.61 366.35 C 346.97 368.15 350.70 372.62 353.39 369.02 L 354.47 367.99 C 356.00 376.58 356.97 385.29 357.34 394.02 C 357.65 403.66 355.85 413.19 354.63 422.71 C 348.78 466.98 343.64 511.39 341.60 556.02 C 341.25 565.02 341.02 574.03 341.18 583.04 C 340.98 593.67 342.23 604.22 343.97 614.69 C 338.95 614.78 333.92 614.38 328.90 614.72 C 327.50 614.55 326.91 616.07 326.03 616.86 C 325.95 616.43 325.77 615.57 325.68 615.14 C 320.54 614.75 315.38 615.02 310.23 614.83 C 308.71 606.93 308.44 598.86 307.26 590.91 C 304.01 550.50 305.09 509.37 314.77 469.84 C 315.88 465.31 317.70 460.74 316.89 456.00 C 315.27 445.37 313.88 434.70 312.27 424.07 C 311.17 415.75 309.49 407.45 309.79 399.03 C 310.07 391.73 310.38 384.42 311.29 377.17 C 313.01 358.90 316.07 340.60 322.43 323.32 C 325.95 314.08 330.64 304.84 338.23 298.27 M 331.57 391.73 C 329.46 400.10 332.05 408.63 332.38 417.06 C 337.50 405.98 338.46 393.45 337.45 381.43 C 337.08 378.61 336.28 375.87 335.50 373.15 C 333.84 379.27 332.90 385.55 331.57 391.73 M 320.26 481.28 C 318.29 487.68 318.64 494.45 320.08 500.91 C 317.24 501.41 314.67 503.98 314.91 506.98 C 314.69 513.87 315.30 520.77 314.64 527.64 C 314.24 530.18 316.38 533.09 319.05 532.96 C 323.93 533.10 328.89 533.48 333.72 532.68 C 336.72 530.92 337.04 527.08 336.96 523.97 C 336.84 514.62 337.41 505.27 336.88 495.94 C 336.46 495.99 335.63 496.10 335.22 496.15 C 335.32 493.44 335.35 490.72 335.35 488.01 C 336.56 491.35 337.38 494.88 339.14 498.00 C 340.40 498.81 341.96 497.40 341.80 496.07 C 341.95 490.17 339.35 484.73 337.69 479.20 C 331.82 479.31 326.05 480.45 320.26 481.28 Z" />
<path fill="#fff4f2" opacity="1.00" d=" M 398.58 297.17 C 403.76 297.60 410.16 295.44 414.22 299.72 C 422.79 307.67 427.49 318.74 431.31 329.56 C 437.25 348.09 440.00 367.46 441.41 386.81 C 442.04 395.62 442.62 404.55 441.30 413.33 C 439.52 425.89 437.74 438.44 435.93 451.00 C 435.36 455.18 434.29 459.48 435.38 463.68 C 440.76 484.60 444.54 506.01 445.55 527.61 C 447.09 548.01 446.38 568.52 445.05 588.90 C 443.91 597.89 443.47 606.97 441.78 615.88 C 434.92 616.05 428.06 615.81 421.20 616.03 C 421.10 616.83 420.90 618.43 420.80 619.22 C 420.52 618.14 420.24 617.06 419.94 616.00 C 415.97 615.74 411.99 615.65 408.02 615.73 C 409.87 604.93 410.87 593.99 410.82 583.03 C 411.05 559.66 409.40 536.33 407.42 513.06 C 404.77 482.87 401.23 452.75 397.19 422.71 C 395.92 413.21 394.22 403.68 394.67 394.05 C 395.00 387.70 395.67 381.36 396.53 375.07 C 400.54 350.86 400.00 326.12 397.13 301.82 C 406.86 312.11 406.72 327.38 406.72 340.63 C 403.93 342.65 401.44 346.22 403.50 349.67 C 405.68 354.27 413.26 353.64 414.59 348.69 C 415.91 345.35 413.36 342.57 410.95 340.67 C 410.81 333.51 410.87 326.31 409.65 319.24 C 408.37 310.97 404.83 302.88 398.58 297.17 M 416.35 373.85 C 414.08 380.99 414.09 388.59 414.24 396.00 C 414.42 397.24 414.11 398.77 415.01 399.80 C 415.29 406.12 416.81 412.42 419.60 418.11 C 420.42 412.83 420.73 407.50 420.94 402.18 C 421.74 397.52 420.29 392.96 419.49 388.42 C 418.52 383.55 417.88 378.59 416.35 373.85 M 414.40 480.18 C 412.23 486.10 409.49 492.26 410.37 498.71 C 411.67 499.89 413.04 499.01 413.92 497.82 C 414.07 503.26 413.93 508.72 414.61 514.13 C 415.24 519.41 414.65 524.74 415.04 530.04 C 414.91 532.16 416.85 534.01 418.94 533.95 C 424.15 534.16 429.45 534.42 434.64 533.70 C 436.77 532.31 436.87 529.30 436.98 527.00 C 436.97 520.35 437.09 513.69 436.94 507.05 C 437.10 504.26 434.17 502.87 431.92 502.18 C 433.11 495.76 433.98 488.81 431.42 482.62 C 425.87 481.16 420.09 480.74 414.40 480.18 Z" />
<path fill="#fff4f2" opacity="1.00" d=" M 343.37 321.56 C 346.91 319.24 349.31 324.17 349.42 327.08 C 350.28 336.78 346.75 346.51 341.61 354.61 C 341.32 354.67 340.74 354.78 340.45 354.83 C 337.17 347.05 336.85 338.18 338.95 330.05 C 339.83 326.98 340.94 323.75 343.37 321.56 Z" />
</g>
<g id="#2d5da7ff">
<path fill="#2d5da7" opacity="1.00" d=" M 728.45 284.56 C 729.53 279.23 734.03 275.27 739.03 273.60 L 739.47 274.13 C 734.82 281.31 736.98 290.10 735.06 298.01 C 733.91 303.24 732.55 308.42 731.72 313.72 C 728.55 313.87 725.39 313.87 722.24 313.87 C 724.32 304.10 726.15 294.28 728.45 284.56 Z" />
<path fill="#2d5da7" opacity="1.00" d=" M 142.85 277.98 C 148.03 276.16 153.90 275.34 158.96 278.03 C 166.61 281.68 170.85 289.89 172.03 297.98 C 174.42 312.32 172.14 326.96 168.99 341.00 C 168.21 344.15 167.69 347.42 166.27 350.38 C 164.21 352.13 161.21 351.61 158.71 351.73 C 147.63 350.46 137.06 346.56 126.87 342.20 C 125.91 341.78 124.95 341.36 124.00 340.95 C 124.53 328.67 125.66 316.34 128.60 304.38 C 130.24 297.98 132.39 291.59 135.99 286.00 C 137.89 283.01 140.62 280.70 142.85 277.98 Z" />
<path fill="#2d5da7" opacity="1.00" d=" M 794.63 284.66 C 796.70 280.12 801.34 277.78 805.38 275.29 C 810.01 275.79 815.11 275.99 818.81 279.22 C 822.40 281.79 823.96 286.09 824.67 290.29 C 827.42 303.35 830.09 316.43 832.72 329.51 C 830.42 329.71 828.13 329.91 825.85 330.11 C 817.34 330.81 808.82 331.45 800.31 332.27 C 798.02 319.52 796.05 306.72 793.81 293.97 C 793.24 290.87 793.03 287.51 794.63 284.66 Z" />
<path fill="#2d5da7" opacity="1.00" d=" M 561.41 292.92 L 561.62 293.04 C 566.59 295.91 571.69 298.66 577.23 300.29 C 577.95 317.65 578.33 335.02 578.92 352.39 C 579.70 384.37 580.61 416.35 581.37 448.33 C 566.77 447.27 552.17 446.05 537.54 445.47 C 538.98 412.87 540.59 380.27 542.07 347.66 C 543.03 331.10 543.48 314.51 544.85 297.97 C 544.93 298.70 545.09 300.14 545.17 300.87 C 550.64 298.35 556.29 296.15 561.41 292.92 Z" />
<path fill="#2d5da7" opacity="1.00" d=" M 354.63 422.71 C 368.82 422.57 383.00 422.58 397.19 422.71 C 401.23 452.75 404.77 482.87 407.42 513.06 C 409.40 536.33 411.05 559.66 410.82 583.03 C 400.56 582.96 390.29 583.00 380.02 583.02 C 374.31 583.02 368.61 583.01 362.90 583.02 C 355.66 582.96 348.42 582.92 341.18 583.04 C 341.02 574.03 341.25 565.02 341.60 556.02 C 343.64 511.39 348.78 466.98 354.63 422.71 Z" />
</g>
<g id="#c4556aff">
<path fill="#c4556a" opacity="1.00" d=" M 358.77 275.65 C 361.15 278.40 364.00 280.73 367.22 282.44 C 367.10 284.59 366.96 286.73 366.70 288.86 C 361.51 290.30 356.58 292.71 352.57 296.35 C 353.18 289.09 355.97 282.30 358.77 275.65 Z" />
</g>
<g id="#4f597eff">
<path fill="#4f597e" opacity="1.00" d=" M 386.21 289.86 C 390.63 291.72 394.98 293.93 398.58 297.17 C 404.83 302.88 408.37 310.97 409.65 319.24 C 410.87 326.31 410.81 333.51 410.95 340.67 C 413.36 342.57 415.91 345.35 414.59 348.69 C 413.26 353.64 405.68 354.27 403.50 349.67 C 401.44 346.22 403.93 342.65 406.72 340.63 C 406.72 327.38 406.86 312.11 397.13 301.82 C 396.44 301.12 395.74 300.43 395.05 299.74 C 394.60 298.40 395.03 296.30 393.35 295.77 C 390.94 294.70 388.35 294.16 385.83 293.48 C 385.94 292.27 386.07 291.06 386.21 289.86 M 406.30 344.33 C 404.73 345.80 405.12 348.92 407.12 349.84 C 409.23 351.24 412.29 349.49 412.35 347.01 C 412.74 343.90 408.40 342.14 406.30 344.33 Z" />
</g>
<g id="#ff827cff">
<path fill="#ff827c" opacity="1.00" d=" M 357.30 296.01 C 360.22 295.02 363.16 294.07 366.12 293.17 C 366.39 302.11 368.41 312.24 375.84 318.07 C 383.21 312.23 384.92 302.29 385.83 293.48 C 388.35 294.16 390.94 294.70 393.35 295.77 C 395.03 296.30 394.60 298.40 395.05 299.74 C 395.16 309.02 394.42 318.75 390.05 327.09 C 384.95 325.04 381.01 320.96 375.99 318.78 C 370.68 320.86 366.49 325.03 361.25 327.30 C 357.63 318.18 356.07 308.36 356.62 298.56 C 356.79 297.93 357.13 296.65 357.30 296.01 Z" />
</g>
<g id="#fef4f1ff">
<path fill="#fef4f1" opacity="1.00" d=" M 347.99 316.91 C 348.92 311.33 350.35 305.50 354.33 301.25 C 354.01 308.35 352.96 315.41 352.90 322.53 C 351.56 320.41 349.83 318.59 347.99 316.91 Z" />
<path fill="#fef4f1" opacity="1.00" d=" M 352.43 340.65 C 352.65 349.39 353.44 358.10 354.24 366.81 L 354.23 367.59 C 352.10 365.71 349.73 364.17 347.25 362.80 C 345.81 361.82 344.52 360.64 343.25 359.46 C 347.54 353.87 350.34 347.34 352.43 340.65 Z" />
</g>
<g id="#feffffff">
<path fill="#feffff" opacity="1.00" d=" M 732.48 313.67 C 740.16 311.73 748.20 313.15 756.04 312.75 C 755.96 314.68 755.90 316.61 755.84 318.54 C 753.80 318.54 751.77 318.55 749.74 318.57 C 747.77 316.78 745.83 314.53 743.04 314.15 C 739.54 313.69 735.99 313.88 732.48 313.67 Z" />
</g>
<g id="#437ed7ff">
<path fill="#437ed7" opacity="1.00" d=" M 596.28 319.38 C 598.79 318.11 602.41 320.02 601.94 323.05 C 602.16 326.17 598.22 327.80 595.82 326.25 C 593.48 324.73 593.59 320.47 596.28 319.38 Z" />
</g>
<g id="#fefefcff">
<path fill="#fefefc" opacity="1.00" d=" M 174.00 321.61 C 181.43 322.41 188.92 321.79 196.23 320.34 C 196.31 322.56 196.37 324.79 196.39 327.01 C 189.21 329.00 181.58 329.73 174.26 328.03 C 174.18 325.89 174.09 323.75 174.00 321.61 Z" />
</g>
<g id="#437ed5ff">
<path fill="#437ed5" opacity="1.00" d=" M 506.81 340.86 C 509.12 339.90 511.64 339.68 514.06 339.09 C 514.81 340.57 515.56 342.03 516.32 343.51 C 513.74 344.98 510.87 346.04 507.89 346.17 C 505.30 346.17 504.42 341.83 506.81 340.86 Z" />
</g>
<g id="#fc837cff">
<path fill="#fc837c" opacity="1.00" d=" M 406.30 344.33 C 408.40 342.14 412.74 343.90 412.35 347.01 C 412.29 349.49 409.23 351.24 407.12 349.84 C 405.12 348.92 404.73 345.80 406.30 344.33 Z" />
</g>
<g id="#fd837bff">
<path fill="#fd837b" opacity="1.00" d=" M 327.55 365.91 C 326.40 361.26 332.30 361.97 335.12 360.95 C 335.61 362.34 336.10 363.74 336.59 365.15 C 333.92 366.23 329.77 368.82 327.55 365.91 Z" />
</g>
<g id="#fd827bff">
<path fill="#fd827b" opacity="1.00" d=" M 347.25 362.80 C 349.73 364.17 352.10 365.71 354.23 367.59 C 354.02 367.95 353.60 368.66 353.39 369.02 C 350.70 372.62 346.97 368.15 344.61 366.35 C 345.49 365.16 346.37 363.98 347.25 362.80 Z" />
</g>
<g id="#c2d0feff">
<path fill="#c2d0fe" opacity="1.00" d=" M 331.57 391.73 C 332.90 385.55 333.84 379.27 335.50 373.15 C 336.28 375.87 337.08 378.61 337.45 381.43 C 338.46 393.45 337.50 405.98 332.38 417.06 C 332.05 408.63 329.46 400.10 331.57 391.73 Z" />
</g>
<g id="#dae4feff">
<path fill="#dae4fe" opacity="1.00" d=" M 416.35 373.85 C 417.88 378.59 418.52 383.55 419.49 388.42 C 420.29 392.96 421.74 397.52 420.94 402.18 C 418.94 401.42 416.95 400.67 415.01 399.80 C 414.11 398.77 414.42 397.24 414.24 396.00 C 414.09 388.59 414.08 380.99 416.35 373.85 Z" />
</g>
<g id="#c1d1fdff">
<path fill="#c1d1fd" opacity="1.00" d=" M 415.01 399.80 C 416.95 400.67 418.94 401.42 420.94 402.18 C 420.73 407.50 420.42 412.83 419.60 418.11 C 416.81 412.42 415.29 406.12 415.01 399.80 Z" />
<path fill="#c1d1fd" opacity="1.00" d=" M 194.16 588.06 C 193.61 580.56 192.04 573.12 192.52 565.58 C 194.46 577.80 196.94 589.93 199.25 602.09 C 198.27 603.26 197.28 604.42 196.34 605.64 C 194.81 599.90 194.91 593.91 194.16 588.06 Z" />
</g>
<g id="#296cc7ff">
<path fill="#296cc7" opacity="1.00" d=" M 728.92 452.31 C 737.35 444.39 745.18 435.84 753.66 427.98 C 755.93 430.24 758.13 432.58 760.42 434.83 C 752.39 443.18 744.21 451.40 735.81 459.39 C 733.47 457.06 730.98 454.89 728.92 452.31 Z" />
<path fill="#296cc7" opacity="1.00" d=" M 793.48 434.82 C 795.81 432.48 798.07 430.06 800.67 428.00 C 808.69 436.19 816.73 444.36 824.98 452.32 C 822.92 454.92 820.47 457.14 818.08 459.42 C 809.64 451.48 801.42 443.27 793.48 434.82 Z" />
<path fill="#296cc7" opacity="1.00" d=" M 170.34 436.01 C 172.95 438.02 175.16 440.48 177.40 442.88 C 169.45 451.52 160.81 459.49 152.69 467.96 C 150.39 465.75 147.91 463.66 146.11 461.00 C 146.28 459.77 147.40 459.01 148.14 458.13 C 155.69 450.90 162.93 443.37 170.34 436.01 Z" />
<path fill="#296cc7" opacity="1.00" d=" M 721.97 479.90 C 759.14 479.80 796.30 479.87 833.47 479.87 C 833.27 486.96 832.55 494.02 832.30 501.12 C 829.89 534.44 827.93 567.79 825.67 601.12 C 825.28 608.14 825.44 615.22 826.84 622.13 C 830.64 640.83 832.82 659.86 833.51 678.92 C 834.45 708.00 830.89 736.94 829.47 765.94 C 829.44 767.63 829.54 769.33 829.80 771.02 C 829.53 769.95 829.26 768.90 828.99 767.85 C 824.84 767.57 820.67 767.41 816.52 767.71 C 816.30 766.65 816.06 765.60 815.85 764.57 C 808.95 724.29 802.29 683.96 795.46 643.67 C 793.15 628.77 790.04 614.00 788.53 598.99 C 785.37 571.98 782.09 545.00 778.98 517.99 C 777.47 518.12 775.99 518.26 774.50 518.40 C 770.30 569.09 765.78 619.75 761.53 670.43 C 758.85 700.61 756.35 730.81 753.70 760.99 C 753.49 763.18 753.25 765.39 753.14 767.60 C 748.89 767.22 744.14 768.54 740.28 766.34 C 739.92 764.24 739.63 762.14 739.37 760.04 C 736.20 734.22 732.71 708.43 730.18 682.53 C 728.43 660.05 729.13 637.37 732.43 615.06 C 733.50 608.11 733.32 601.05 732.45 594.10 C 728.90 556.04 725.41 517.97 721.97 479.90 Z" />
<path fill="#296cc7" opacity="1.00" d=" M 184.88 497.67 C 197.20 497.07 209.42 495.22 221.55 493.05 C 225.82 525.09 231.12 557.01 235.21 589.08 C 236.32 598.13 235.14 607.36 232.32 616.01 C 229.42 624.00 224.55 631.03 220.30 638.33 C 213.00 650.37 205.94 662.55 198.50 674.50 C 198.35 671.69 198.33 668.87 198.58 666.07 C 199.29 658.28 198.85 650.45 199.57 642.67 C 200.32 635.69 198.38 628.86 197.75 621.96 C 197.24 616.52 196.07 611.12 196.34 605.64 C 197.28 604.42 198.27 603.26 199.25 602.09 C 196.94 589.93 194.46 577.80 192.52 565.58 C 190.72 556.81 190.28 547.85 189.25 538.98 C 187.73 525.21 186.54 511.41 184.88 497.67 Z" />
<path fill="#296cc7" opacity="1.00" d=" M 165.52 661.47 C 167.09 667.62 166.83 673.99 167.55 680.25 C 168.93 692.52 171.05 704.69 173.35 716.81 C 164.25 731.85 155.29 746.98 146.23 762.05 L 145.81 762.33 C 142.09 759.82 138.44 757.22 134.89 754.50 C 143.10 722.89 152.85 691.59 165.52 661.47 Z" />
</g>
<g id="#144d99ff">
<path fill="#144d99" opacity="1.00" d=" M 760.42 434.83 C 761.46 435.86 762.50 436.89 763.54 437.93 C 755.35 446.19 747.24 454.56 738.82 462.60 C 737.80 461.53 736.79 460.46 735.81 459.39 C 744.21 451.40 752.39 443.18 760.42 434.83 Z" />
</g>
<g id="#144c98ff">
<path fill="#144c98" opacity="1.00" d=" M 790.36 437.86 C 791.38 436.83 792.43 435.82 793.48 434.82 C 801.42 443.27 809.64 451.48 818.08 459.42 C 817.10 460.49 816.12 461.56 815.15 462.64 C 806.72 454.55 798.52 446.22 790.36 437.86 Z" />
<path fill="#144c98" opacity="1.00" d=" M 177.40 442.88 C 178.49 443.87 179.58 444.88 180.66 445.89 C 172.29 454.24 164.21 462.92 155.43 470.84 C 154.51 469.87 153.60 468.91 152.69 467.96 C 160.81 459.49 169.45 451.52 177.40 442.88 Z" />
</g>
<g id="#f6fafeff">
<path fill="#f6fafe" opacity="1.00" d=" M 124.87 491.63 C 125.49 490.59 126.11 489.55 126.74 488.52 C 136.53 491.54 146.76 492.91 156.95 493.62 C 179.35 494.92 201.84 492.91 223.93 489.29 C 224.46 489.85 225.52 490.95 226.06 491.50 C 224.56 492.05 223.07 492.58 221.55 493.05 C 209.42 495.22 197.20 497.07 184.88 497.67 C 167.85 498.56 150.65 497.59 133.97 493.88 C 130.93 493.16 127.91 492.36 124.87 491.63 Z" />
</g>
<g id="#f2f2f2ff">
<path fill="#f2f2f2" opacity="1.00" d=" M 334.41 752.80 C 334.64 754.55 334.90 756.29 335.14 758.05 C 328.28 763.57 321.32 768.99 314.61 774.69 C 312.52 776.15 313.35 779.66 315.84 780.12 C 321.12 781.50 326.85 781.50 332.12 780.04 C 336.21 779.03 338.39 774.31 342.81 774.17 C 344.84 773.65 347.78 774.20 348.82 771.88 C 350.34 767.54 348.32 763.01 347.71 758.69 C 347.72 757.48 347.76 756.29 347.85 755.11 C 364.58 755.25 381.31 754.94 398.05 754.96 C 401.86 755.06 405.69 754.97 409.48 754.45 C 409.60 755.69 409.66 756.92 409.70 758.19 C 408.92 762.62 406.85 767.25 408.29 771.75 C 409.22 774.07 412.08 773.70 414.08 774.13 C 418.61 774.14 420.86 778.91 424.98 780.01 C 430.24 781.51 435.95 781.49 441.24 780.17 C 443.88 779.81 444.68 776.04 442.50 774.58 C 436.12 769.32 429.76 764.01 423.11 759.09 C 423.05 757.72 423.02 756.36 423.02 755.01 C 455.41 754.70 487.80 754.79 520.19 755.02 C 520.40 757.55 522.97 761.02 520.16 762.86 C 509.60 767.29 499.15 771.99 488.61 776.48 C 486.41 777.45 483.24 779.03 483.98 781.97 C 485.24 785.19 489.14 784.93 491.98 784.89 C 502.16 784.53 512.43 784.58 522.49 782.72 C 526.82 781.78 531.79 780.42 534.19 776.32 C 536.39 772.31 534.43 767.82 533.99 763.65 C 534.21 760.74 534.57 757.85 534.79 754.95 C 554.15 755.18 573.53 754.80 592.87 755.93 C 593.08 755.11 593.48 753.47 593.69 752.65 C 594.04 755.63 594.68 758.64 594.17 761.65 C 592.78 765.81 591.49 770.85 594.23 774.77 C 597.27 778.68 602.54 779.59 607.16 780.30 C 618.07 781.55 629.09 781.10 640.04 780.84 C 642.47 780.91 645.66 779.65 645.74 776.83 C 645.55 774.15 642.53 773.19 640.45 772.31 C 629.44 768.35 618.57 764.02 607.52 760.19 C 607.54 758.78 607.57 757.37 607.61 755.98 C 614.41 756.14 621.22 755.82 628.01 756.33 C 641.44 757.56 654.96 756.38 668.39 757.56 C 678.95 758.33 689.58 757.61 700.14 758.59 C 703.74 758.91 707.35 758.99 710.97 758.99 C 720.46 758.80 729.88 760.33 739.37 760.04 C 739.63 762.14 739.92 764.24 740.28 766.34 C 740.34 766.82 740.48 767.79 740.54 768.27 C 733.62 774.46 726.03 779.85 719.04 785.95 C 717.07 787.43 717.88 791.00 720.33 791.48 C 726.06 792.92 732.31 793.00 737.98 791.19 C 741.72 790.05 743.78 785.80 747.83 785.39 C 750.13 784.75 753.58 785.51 754.77 782.83 C 756.34 777.75 753.83 772.62 753.14 767.60 C 753.25 765.39 753.49 763.18 753.70 760.99 C 774.44 761.55 795.11 763.61 815.85 764.57 C 816.06 765.60 816.30 766.65 816.52 767.71 C 814.58 770.67 811.41 772.46 808.78 774.73 C 804.22 778.55 799.40 782.05 794.97 786.01 C 793.00 787.53 793.94 791.05 796.37 791.49 C 801.96 792.92 808.00 792.93 813.57 791.35 C 817.54 790.29 819.66 785.79 823.89 785.38 C 826.18 784.76 829.56 785.47 830.75 782.83 C 832.05 778.95 830.61 774.85 829.80 771.02 C 829.54 769.33 829.44 767.63 829.47 765.94 C 842.97 766.99 856.45 768.47 869.88 770.32 C 879.45 771.90 889.25 773.03 898.31 776.70 C 899.89 777.45 902.23 778.51 901.80 780.67 C 898.24 783.77 893.41 784.71 889.00 786.01 C 877.59 788.63 865.94 790.06 854.33 791.45 C 829.62 794.04 804.87 796.23 780.06 797.38 C 773.29 798.47 766.40 797.61 759.62 798.58 C 753.91 799.35 748.13 798.72 742.42 799.44 C 735.08 800.28 727.67 799.63 720.33 800.47 C 711.26 801.47 702.09 800.49 693.04 801.71 C 684.02 802.06 674.99 802.00 665.97 802.17 C 651.36 803.69 636.62 802.36 622.00 803.72 C 606.68 804.14 591.35 803.99 576.02 804.15 C 570.32 803.90 564.68 805.07 558.98 804.83 C 495.66 805.20 432.33 805.12 369.00 804.84 C 349.02 803.49 328.97 804.35 308.97 803.70 C 296.35 802.50 283.64 803.30 270.99 802.77 C 258.70 801.33 246.27 802.68 233.99 801.21 C 225.00 800.91 215.99 801.11 207.04 800.11 C 196.30 800.34 185.66 798.85 174.93 798.87 C 166.31 797.86 157.61 798.29 149.01 797.13 C 139.34 796.99 129.70 796.17 120.07 795.25 C 107.01 794.71 94.01 793.03 80.99 791.85 C 67.21 790.28 53.34 788.78 39.88 785.32 C 36.53 784.24 32.47 783.71 30.28 780.66 C 28.98 777.98 32.64 777.20 34.34 776.26 C 44.92 772.35 56.28 771.39 67.32 769.45 C 87.02 767.34 106.75 765.15 126.53 764.09 C 126.71 772.72 133.52 779.06 139.01 784.95 C 141.74 788.16 146.18 787.99 150.01 788.38 C 155.02 788.64 160.03 789.35 165.06 789.16 C 168.49 788.91 169.16 783.23 165.90 782.13 C 161.46 780.25 156.81 778.94 152.23 777.44 C 149.94 772.46 147.97 767.35 145.81 762.33 L 146.23 762.05 C 158.61 762.84 170.92 760.62 183.30 760.95 C 183.93 763.41 184.62 765.86 185.35 768.30 C 185.35 772.48 182.52 776.57 184.19 780.77 C 185.89 785.13 190.78 786.84 194.96 787.91 C 205.82 790.36 217.02 790.46 228.08 791.14 C 230.74 791.23 234.32 791.51 235.77 788.73 C 236.84 786.36 234.27 784.50 232.40 783.66 C 221.63 778.88 210.77 774.29 200.04 769.45 C 199.78 766.30 199.40 763.16 199.01 760.04 C 206.02 759.78 212.99 758.83 220.01 759.00 C 227.37 759.22 234.67 757.96 242.03 758.04 C 250.01 758.02 258.01 758.06 265.98 757.33 C 276.97 756.72 287.99 757.16 298.98 756.71 C 310.53 755.59 322.15 756.19 333.74 755.87 C 333.91 755.10 334.24 753.57 334.41 752.80 Z" />
</g>
<g id="#21213bff">
<path fill="#21213b" opacity="1.00" d=" M 126.53 764.09 C 127.83 759.86 131.74 757.28 134.89 754.50 C 138.44 757.22 142.09 759.82 145.81 762.33 C 147.97 767.35 149.94 772.46 152.23 777.44 C 156.81 778.94 161.46 780.25 165.90 782.13 C 169.16 783.23 168.49 788.91 165.06 789.16 C 160.03 789.35 155.02 788.64 150.01 788.38 C 146.18 787.99 141.74 788.16 139.01 784.95 C 133.52 779.06 126.71 772.72 126.53 764.09 Z" />
<path fill="#21213b" opacity="1.00" d=" M 314.61 774.69 C 321.32 768.99 328.28 763.57 335.14 758.05 C 339.33 758.30 343.52 758.44 347.71 758.69 C 348.32 763.01 350.34 767.54 348.82 771.88 C 347.78 774.20 344.84 773.65 342.81 774.17 C 338.39 774.31 336.21 779.03 332.12 780.04 C 326.85 781.50 321.12 781.50 315.84 780.12 C 313.35 779.66 312.52 776.15 314.61 774.69 Z" />
<path fill="#21213b" opacity="1.00" d=" M 408.29 771.75 C 406.85 767.25 408.92 762.62 409.70 758.19 C 414.15 758.64 418.62 759.16 423.11 759.09 C 429.76 764.01 436.12 769.32 442.50 774.58 C 444.68 776.04 443.88 779.81 441.24 780.17 C 435.95 781.49 430.24 781.51 424.98 780.01 C 420.86 778.91 418.61 774.14 414.08 774.13 C 412.08 773.70 409.22 774.07 408.29 771.75 Z" />
<path fill="#21213b" opacity="1.00" d=" M 594.17 761.65 C 598.62 761.18 603.05 760.43 607.52 760.19 C 618.57 764.02 629.44 768.35 640.45 772.31 C 642.53 773.19 645.55 774.15 645.74 776.83 C 645.66 779.65 642.47 780.91 640.04 780.84 C 629.09 781.10 618.07 781.55 607.16 780.30 C 602.54 779.59 597.27 778.68 594.23 774.77 C 591.49 770.85 592.78 765.81 594.17 761.65 Z" />
<path fill="#21213b" opacity="1.00" d=" M 488.61 776.48 C 499.15 771.99 509.60 767.29 520.16 762.86 C 524.78 762.91 529.38 763.39 533.99 763.65 C 534.43 767.82 536.39 772.31 534.19 776.32 C 531.79 780.42 526.82 781.78 522.49 782.72 C 512.43 784.58 502.16 784.53 491.98 784.89 C 489.14 784.93 485.24 785.19 483.98 781.97 C 483.24 779.03 486.41 777.45 488.61 776.48 Z" />
<path fill="#21213b" opacity="1.00" d=" M 740.28 766.34 C 744.14 768.54 748.89 767.22 753.14 767.60 C 753.83 772.62 756.34 777.75 754.77 782.83 C 753.58 785.51 750.13 784.75 747.83 785.39 C 743.78 785.80 741.72 790.05 737.98 791.19 C 732.31 793.00 726.06 792.92 720.33 791.48 C 717.88 791.00 717.07 787.43 719.04 785.95 C 726.03 779.85 733.62 774.46 740.54 768.27 C 740.48 767.79 740.34 766.82 740.28 766.34 Z" />
<path fill="#21213b" opacity="1.00" d=" M 185.35 768.30 C 185.72 768.59 186.45 769.16 186.82 769.45 C 191.22 769.76 195.63 769.03 200.04 769.45 C 210.77 774.29 221.63 778.88 232.40 783.66 C 234.27 784.50 236.84 786.36 235.77 788.73 C 234.32 791.51 230.74 791.23 228.08 791.14 C 217.02 790.46 205.82 790.36 194.96 787.91 C 190.78 786.84 185.89 785.13 184.19 780.77 C 182.52 776.57 185.35 772.48 185.35 768.30 Z" />
<path fill="#21213b" opacity="1.00" d=" M 816.52 767.71 C 820.67 767.41 824.84 767.57 828.99 767.85 C 829.26 768.90 829.53 769.95 829.80 771.02 C 830.61 774.85 832.05 778.95 830.75 782.83 C 829.56 785.47 826.18 784.76 823.89 785.38 C 819.66 785.79 817.54 790.29 813.57 791.35 C 808.00 792.93 801.96 792.92 796.37 791.49 C 793.94 791.05 793.00 787.53 794.97 786.01 C 799.40 782.05 804.22 778.55 808.78 774.73 C 811.41 772.46 814.58 770.67 816.52 767.71 Z" />
</g>
</svg>
