<?xml version="1.0" encoding="iso-8859-1"?>
<!-- Generator: Adobe Illustrator 19.0.0, SVG Export Plug-In . SVG Version: 6.00 Build 0)  -->
<svg version="1.1" id="Layer_1" xmlns="http://www.w3.org/2000/svg" xmlns:xlink="http://www.w3.org/1999/xlink" x="0px" y="0px"
	 viewBox="0 0 512 512" style="enable-background:new 0 0 512 512;" xml:space="preserve">
<path style="fill:#97F4EC;" d="M508.52,213.811C488.401,92.503,383.012,0,256,0C114.615,0,0,114.615,0,256
	c0,127.012,92.504,232.401,213.811,252.52L508.52,213.811z"/>
<path style="fill:#78E9E1;" d="M512,256c0-14.373-1.204-28.462-3.48-42.189l-43.045-43.045L96,158.333l-57.333,27.333l7.859,155.568
	L213.811,508.52C227.538,510.796,241.627,512,256,512C397.385,512,512,397.385,512,256z"/>
<path style="fill:#FFFFFF;" d="M256,361.76H96c-38.598,0-70-31.402-70-70v-71.52c0-38.598,31.402-70,70-70h160v20H96
	c-27.57,0-50,22.43-50,50v71.52c0,27.57,22.43,50,50,50h160V361.76z"/>
<path style="fill:#DAFFFB;" d="M256,361.76h160c38.598,0,70-31.402,70-70v-71.52c0-38.598-31.402-70-70-70H256v20h160
	c27.57,0,50,22.43,50,50v71.52c0,27.57-22.43,50-50,50H256V361.76z"/>
<path style="fill:#97F4EC;" d="M400.99,154.65v55.68L236,191l20-75C333.21,116,400.32,154.27,400.99,154.65z"/>
<path style="fill:#B6FFF6;" d="M400.98,301.68v55.67L256,401l-20-90C236,311,399.97,301.97,400.98,301.68z"/>
<path style="fill:#97F4EC;" d="M236,246l20,75c77.16,0,143.97-19.03,144.98-19.32l0.01-45.68C400.32,256,236,246,236,246z"/>
<path style="fill:#B6FFF6;" d="M400.99,210.33V256c-0.67,0-87.68,0-164.99,0l20-65C333.26,191,400.32,210.13,400.99,210.33z"/>
<path style="fill:#DAFFFB;" d="M256,321v75c-77.21,0-144.32-38.27-144.99-38.65v-55.68L256,321z"/>
<path style="fill:#B6FFF6;" d="M256,116v75l-144.98,19.32v-55.67C111.68,154.26,178.58,116,256,116z"/>
<path style="fill:#DAFFFB;" d="M256,191v65l-72.49,20l-72.49-20v-45.68C112.03,210.03,178.84,191,256,191z"/>
<path style="fill:#B6FFF6;" d="M111.02,256c-0.01,0-0.01,45.67-0.01,45.67C111.68,301.87,178.74,321,256,321v-65
	C256,256,111.01,256,111.02,256z"/>
<path style="fill:#DAFFFB;" d="M416,150.24v211.52l-4.98,2.89C408.1,366.34,338.74,406,256,406v-20c65.28,0,123.08-27.21,140-35.97
	V161.98C379.05,153.22,321.12,126,256,126v-20c82.74,0,152.1,39.66,155.02,41.35L416,150.24z"/>
<g>
	<path style="fill:#FFFFFF;" d="M256,386v20c-82.74,0-152.1-39.66-155.02-41.35L96,361.76V150.24l4.98-2.89
		C103.9,145.66,173.26,106,256,106v20c-65.28,0-123.08,27.21-140,35.97v188.05C132.95,358.78,190.89,386,256,386z"/>
	<rect x="216" y="341" style="fill:#FFFFFF;" width="20" height="20"/>
	<rect x="276" y="151" style="fill:#FFFFFF;" width="20" height="20"/>
	<rect x="166" y="276" style="fill:#FFFFFF;" width="20" height="20"/>
	<rect x="206" y="276" style="fill:#FFFFFF;" width="20" height="20"/>
</g>
<g>
</g>
<g>
</g>
<g>
</g>
<g>
</g>
<g>
</g>
<g>
</g>
<g>
</g>
<g>
</g>
<g>
</g>
<g>
</g>
<g>
</g>
<g>
</g>
<g>
</g>
<g>
</g>
<g>
</g>
</svg>
