<svg id="Capa_1" enable-background="new 0 0 512 512" height="512" viewBox="0 0 512 512" width="512" xmlns="http://www.w3.org/2000/svg"><g><g><g><g><g><g><g><path d="m7.439 194.485c27.545-111.673 128.382-194.485 248.561-194.485 141.385 0 256 114.615 256 256s-114.615 256-256 256c-97.453 0-182.187-54.453-225.436-134.593z" fill="#fe6a16"/></g></g></g></g></g></g><path d="m256 512c141.385 0 256-114.615 256-256 0-8.104-.394-16.115-1.131-24.026l-41.159-41.159-1.859 1.552-76.118-76.118-41.125 44.817-98.154-98.154-37.112 35.345 81.703 81.702-50.165 37.172-98.418-98.418-11.177 17.996 92.839 92.839-199.555 147.869c43.251 80.134 127.982 134.583 225.431 134.583z" fill="#ea3e03"/><g><path d="m432.62 266.54c10.251 0 18.518-8.492 18.151-18.825-.35-9.842-8.738-17.5-18.586-17.5h-121.632v-6.888h112.768c10.031 0 18.163-8.132 18.163-18.163 0-10.031-8.132-18.163-18.163-18.163h-105.773s.005 7.434 0 7.465c-1.887 12.336-14.928 21.828-26.461 22.436-.454.024-.91.036-1.37.036h-56.841v-11.814c.016-.015-.016-.024 0-.039h56.178c10.736 0 19.418-8.877 19.058-19.725-.344-10.348-9.153-18.413-19.507-18.413h-107.237c-18.843 0-35.083 11.312-42.317 27.496-.006.014-.021.023-.037.023 0 0-74.958 0-131.571 0-4.863 19.711-7.443 40.321-7.443 61.534 0 19.787 2.245 39.049 6.494 57.547h134.992c.015 0 .028.008.035.021 8.523 15.151 24.134 25.781 42.341 27.39v.226h36.956 72.836 74.038c7.921 0 14.36-6.347 14.508-14.233.152-8.132-6.755-14.787-14.888-14.787h-75.386v-5.714h111.907c9.443 0 17.098-7.655 17.098-17.098 0-9.443-7.655-17.098-17.098-17.098h-101.558v-5.714zm-199.743-49.569v-.017c.003.006.007.011 0 .017z" fill="#ffbeaa"/></g><g fill="#e09380"><path d="m289.054 205.084c10.736 0 19.418-8.877 19.058-19.725-.344-10.348-9.153-18.413-19.507-18.413h-32.762v38.138z"/><path d="m432.184 230.214h-121.631v-6.888h112.768c10.031 0 18.163-8.132 18.163-18.163s-8.132-18.163-18.163-18.163h-105.773s.005 7.434 0 7.465c-1.887 12.336-14.928 21.828-26.461 22.436-.454.024-.91.036-1.37.036h-33.874v124.246h37.811 74.038c7.921 0 14.36-6.347 14.508-14.233.152-8.132-6.755-14.787-14.888-14.787h-75.386v-5.714h111.907c9.443 0 17.098-7.655 17.098-17.098s-7.655-17.098-17.098-17.098h-101.558v-5.714h130.345c10.251 0 18.518-8.492 18.151-18.825-.35-9.842-8.738-17.5-18.587-17.5z"/></g><g><path d="m295.894 198.849c-2.748-34.261-31.422-61.208-66.391-61.208-36.786 0-66.606 29.821-66.606 66.606 0 6.565.95 12.909 2.72 18.901-13.178 10.327-21.646 26.389-21.646 44.43 0 31.157 25.258 56.415 56.415 56.415 25.726 0 47.429-17.22 54.215-40.762 6.536 3.446 13.982 5.398 21.885 5.398 25.947 0 46.982-21.035 46.982-46.982-.001-19.026-11.311-35.411-27.574-42.798z" fill="#fff"/></g><g><path d="m295.894 198.849c-2.701-33.677-30.456-60.268-65.263-61.166v177.097c11.792-7.307 20.193-18.446 23.969-31.549 6.536 3.446 13.982 5.398 21.885 5.398 25.948 0 46.982-21.035 46.982-46.982 0-19.026-11.31-35.411-27.573-42.798z" fill="#e9edf5"/></g><g><path d="m412.076 294.084h-121.631v-6.888h112.768c10.031 0 18.163-8.132 18.163-18.163 0-10.031-8.132-18.163-18.163-18.163h-105.773s.005 7.434 0 7.465c-1.887 12.336-14.928 21.828-26.461 22.436-.454.023-.91.036-1.37.036h-56.841v-11.814c.016-.015-.016-.024 0-.039h56.178c10.736 0 19.418-8.877 19.058-19.725-.344-10.348-9.153-18.413-19.507-18.413h-107.237c-18.843 0-35.083 11.312-42.317 27.496-.006.014-.021.023-.037.023 0 0-75.351 0-118.896 0 .385 43.065 11.404 83.592 30.558 119.08h90.808c.015 0 .028.008.035.021 8.523 15.151 24.134 25.781 42.341 27.39v.225h36.957 72.836 74.038c7.921 0 14.36-6.347 14.508-14.233.152-8.132-6.755-14.788-14.888-14.788h-75.386v-5.714h111.907c9.443 0 17.098-7.655 17.098-17.098 0-9.443-7.655-17.098-17.098-17.098h-101.558v-5.714h130.345c10.251 0 18.518-8.492 18.151-18.825-.35-9.838-8.737-17.497-18.586-17.497zm-199.308-13.242v-.017c.004.005.008.01 0 .017z" fill="#ffdecf"/></g><g fill="#ffbeaa"><path d="m268.946 268.955c10.736 0 19.418-8.877 19.058-19.725-.344-10.348-9.153-18.413-19.507-18.413h-37.867v38.138z"/><path d="m412.076 294.084h-121.631v-6.888h112.768c10.031 0 18.163-8.132 18.163-18.163s-8.132-18.163-18.163-18.163h-105.773s.005 7.434 0 7.465c-1.887 12.336-14.928 21.828-26.461 22.436-.454.023-.91.036-1.37.036h-38.979v124.246h42.916 74.038c7.921 0 14.36-6.347 14.508-14.233.152-8.132-6.755-14.788-14.888-14.788h-75.386v-5.714h111.907c9.443 0 17.098-7.655 17.098-17.098s-7.655-17.098-17.098-17.098h-101.559v-5.714h130.345c10.251 0 18.518-8.492 18.151-18.825-.35-9.84-8.737-17.499-18.586-17.499z"/></g><g><path d="m479.059 214.727c0-19.481-15.792-35.273-35.273-35.273-13.915 0-25.948 8.058-31.688 19.761-6.218-2.247-12.924-3.472-19.917-3.472-32.364 0-58.601 26.236-58.601 58.601 0 32.364 26.237 58.601 58.601 58.601 32.365 0 58.601-26.237 58.601-58.601 0-1.683-.071-3.35-.21-4.997 16.234-3.163 28.487-17.461 28.487-34.62z" fill="#e9edf5"/></g><g><circle cx="365.834" cy="135.472" fill="#e9edf5" r="32.253"/></g><g><circle cx="230.631" cy="77.155" fill="#fff" r="26.063"/></g><g><path d="m230.631 51.092c14.394 0 26.063 11.669 26.063 26.063s-11.669 26.063-26.063 26.063z" fill="#e9edf5"/></g><g><circle cx="141.634" cy="126.945" fill="#fff" r="10.695"/></g></g></svg>